<svg width="211" height="38" viewBox="0 0 211 38" fill="none" xmlns="http://www.w3.org/2000/svg">
<g clip-path="url(#clip0_3_1091)">
<path d="M78.3011 10.8503H72.9991V1.18843C73.0042 0.949038 72.9636 0.774976 72.8824 0.677056C72.7961 0.5791 72.6436 0.530139 72.4202 0.535583H71.4145C71.1911 0.530139 71.0288 0.5791 70.9373 0.677056C70.8459 0.774976 70.8002 0.949038 70.8053 1.18843V23.0583C70.8002 23.2976 70.8459 23.4718 70.9373 23.5696C71.0288 23.6676 71.1911 23.7165 71.4145 23.7111H72.4202C72.6436 23.7165 72.7961 23.6676 72.8824 23.5696C72.9636 23.4718 73.0042 23.2976 72.9991 23.0583V13.0699H78.3011V16.0077C78.3062 17.7213 78.6211 19.1848 79.2559 20.4034C79.8904 21.6166 80.82 22.5469 82.049 23.1888C83.273 23.8362 84.7759 24.1627 86.5587 24.1681C88.3209 24.1627 89.8089 23.8362 91.0277 23.1888C92.2465 22.5469 93.1706 21.6166 93.8003 20.4034C94.4351 19.1848 94.75 17.7213 94.7551 16.0077V8.23898C94.75 6.52529 94.4351 5.06189 93.8003 3.84329C93.1706 2.63011 92.2465 1.6998 91.0277 1.0524C89.8089 0.410442 88.3209 0.0840571 86.5587 0.0786133C84.7759 0.0840571 83.273 0.410442 82.049 1.0524C80.82 1.6998 79.8904 2.63011 79.2559 3.84329C78.6211 5.06189 78.3062 6.52529 78.3011 8.23898V10.8503ZM92.5614 16.0077C92.5614 17.2862 92.3277 18.3633 91.8655 19.2555C91.4032 20.1423 90.7278 20.8169 89.8341 21.2793C88.9455 21.7471 87.8535 21.9757 86.5587 21.9811C85.2586 21.9757 84.1565 21.7471 83.2627 21.2793C82.3639 20.8169 81.6833 20.1423 81.2211 19.2555C80.7589 18.3633 80.5256 17.2862 80.5256 16.0077V8.23898C80.5256 6.96057 80.7589 5.87794 81.2211 4.99119C81.6833 4.1044 82.3639 3.42979 83.2627 2.96194C84.1565 2.49953 85.2586 2.26561 86.5587 2.26561C87.8535 2.26561 88.9455 2.49953 89.8341 2.96194C90.7278 3.42979 91.4032 4.1044 91.8655 4.99119C92.3277 5.87794 92.5614 6.96057 92.5614 8.23898V16.0077ZM99.4783 0.535583C99.2545 0.530139 99.0921 0.5791 99.0007 0.677056C98.9093 0.774976 98.8636 0.949038 98.8687 1.18843V23.0583C98.8636 23.2976 98.9093 23.4718 99.0007 23.5696C99.0921 23.6676 99.2545 23.7165 99.4783 23.7111H100.484C100.707 23.7165 100.859 23.6676 100.946 23.5696C101.027 23.4718 101.068 23.2976 101.063 23.0583V14.9958H107.614C109.041 14.9903 110.27 14.702 111.296 14.1308C112.321 13.565 113.109 12.7436 113.662 11.6664C114.216 10.5947 114.495 9.29984 114.5 7.78203C114.495 6.26419 114.216 4.96396 113.662 3.88677C113.109 2.80961 112.321 1.98271 111.296 1.40604C110.27 0.829378 109.041 0.541027 107.614 0.535583H99.4783ZM101.063 12.8088V2.75521H107.431C108.421 2.76065 109.274 2.96194 109.985 3.35906C110.696 3.76167 111.25 4.33832 111.631 5.08363C112.017 5.83442 112.21 6.73206 112.215 7.78203C112.21 8.832 112.017 9.72964 111.631 10.4804C111.25 11.2257 110.696 11.8024 109.985 12.1995C109.274 12.6021 108.421 12.8034 107.431 12.8088H101.063ZM132.6 0.535583C132.463 0.535583 132.341 0.562804 132.234 0.611762C132.127 0.666168 132.036 0.747755 131.96 0.862007L123.184 14.5388C122.468 15.6649 121.828 16.7421 121.254 17.7649C120.686 18.7931 120.183 19.7615 119.741 20.6754H119.65C119.772 19.5493 119.863 18.4014 119.924 17.2263C119.985 16.0566 120.015 14.8652 120.015 13.6575V1.18843C120.02 0.949038 119.98 0.774976 119.898 0.677056C119.812 0.5791 119.66 0.530139 119.436 0.535583H118.431C118.208 0.530139 118.045 0.5791 117.953 0.677056C117.862 0.774976 117.816 0.949038 117.821 1.18843V23.0583C117.816 23.2976 117.862 23.4718 117.953 23.5696C118.045 23.6676 118.208 23.7165 118.431 23.7111H119.436C119.573 23.7111 119.696 23.6785 119.802 23.6186C119.909 23.5533 120 23.4663 120.076 23.3521L129.065 9.3488C129.781 8.17369 130.411 7.10198 130.959 6.13904C131.503 5.17611 131.96 4.32202 132.326 3.57127H132.386C132.249 4.73004 132.153 5.8616 132.087 6.97142C132.021 8.08121 131.99 9.16929 131.99 10.2301V23.0583C131.99 23.2976 132.031 23.4718 132.122 23.5696C132.219 23.6676 132.376 23.7165 132.6 23.7111H133.605C133.828 23.7165 133.991 23.6676 134.083 23.5696C134.174 23.4718 134.22 23.2976 134.215 23.0583V1.18843C134.22 0.949038 134.174 0.774976 134.083 0.677056C133.991 0.5791 133.828 0.530139 133.605 0.535583H132.6ZM138.328 15.975C138.333 17.6887 138.658 19.1576 139.308 20.3762C139.958 21.5948 140.903 22.5306 142.142 23.1834C143.381 23.8308 144.894 24.1627 146.677 24.1681C148.206 24.1681 149.511 23.9559 150.598 23.5261C151.679 23.1018 152.568 22.4653 153.259 21.622C153.955 20.7734 154.483 19.7179 154.843 18.4558C154.904 18.26 154.904 18.0968 154.843 17.9607C154.782 17.8302 154.66 17.7213 154.478 17.6398L153.533 17.2481C153.35 17.1991 153.193 17.21 153.055 17.2753C152.923 17.346 152.817 17.4766 152.741 17.6724C152.462 18.6625 152.07 19.4731 151.568 20.1096C151.065 20.7461 150.415 21.2195 149.618 21.5241C148.82 21.8288 147.84 21.9811 146.677 21.9811C145.362 21.9757 144.255 21.7363 143.341 21.2684C142.432 20.7951 141.741 20.1151 141.269 19.2229C140.791 18.3361 140.557 17.2644 140.553 16.0077V8.23898C140.553 6.97142 140.786 5.89427 141.253 5.00748C141.721 4.12069 142.406 3.44068 143.315 2.97283C144.224 2.50497 145.346 2.26561 146.677 2.26561C147.82 2.26017 148.785 2.41249 149.572 2.7117C150.364 3.0109 151.009 3.47331 151.512 4.09354C152.01 4.71371 152.401 5.50799 152.68 6.47633C152.756 6.65588 152.858 6.77558 152.985 6.84087C153.111 6.90613 153.274 6.91702 153.472 6.86806L154.417 6.50899C154.64 6.43285 154.777 6.32944 154.828 6.20434C154.879 6.07919 154.863 5.89968 154.782 5.66031C154.422 4.40905 153.894 3.36998 153.203 2.54304C152.512 1.71613 151.629 1.10136 150.552 0.693349C149.475 0.279896 148.185 0.0786133 146.677 0.0786133C144.874 0.0840571 143.356 0.410442 142.117 1.06329C140.877 1.71613 139.933 2.65185 139.293 3.87048C138.653 5.08907 138.333 6.55795 138.328 8.27161V15.975ZM156.976 0.535583C156.753 0.530139 156.59 0.5791 156.499 0.677056C156.407 0.774976 156.362 0.949038 156.367 1.18843V2.1024C156.362 2.34176 156.407 2.51041 156.499 2.61377C156.59 2.71169 156.753 2.75521 156.976 2.75521H163.131V23.0583C163.126 23.2976 163.172 23.4718 163.263 23.5696C163.355 23.6676 163.517 23.7165 163.741 23.7111H164.746C164.97 23.7165 165.132 23.6676 165.224 23.5696C165.315 23.4718 165.361 23.2976 165.356 23.0583V2.75521H171.511C171.734 2.75521 171.897 2.71169 171.988 2.61377C172.079 2.51041 172.125 2.34176 172.12 2.1024V1.18843C172.125 0.949038 172.079 0.774976 171.988 0.677056C171.897 0.5791 171.734 0.530139 171.511 0.535583H156.976ZM174.253 15.975C174.258 17.6887 174.583 19.1576 175.228 20.3762C175.873 21.5948 176.818 22.5306 178.062 23.1834C179.306 23.8308 180.83 24.1627 182.632 24.1681C184.425 24.1627 185.939 23.8308 187.183 23.1834C188.422 22.5306 189.366 21.5948 190.012 20.3762C190.651 19.1576 190.976 17.6887 190.981 15.975V8.27161C190.976 6.55795 190.651 5.08907 190.012 3.87048C189.366 2.65185 188.422 1.71613 187.183 1.06329C185.939 0.410442 184.425 0.0840571 182.632 0.0786133C180.83 0.0840571 179.306 0.410442 178.062 1.06329C176.818 1.71613 175.873 2.65185 175.228 3.87048C174.583 5.08907 174.258 6.55795 174.253 8.27161V15.975ZM188.788 15.975C188.788 17.2535 188.549 18.3361 188.081 19.2283C187.609 20.1205 186.919 20.806 186.005 21.2739C185.091 21.7417 183.963 21.9757 182.632 21.9811C181.302 21.9757 180.175 21.7417 179.255 21.2739C178.336 20.806 177.64 20.1205 177.163 19.2283C176.686 18.3361 176.447 17.2535 176.447 15.975V8.27161C176.447 6.9932 176.686 5.9106 177.163 5.01841C177.64 4.12069 178.336 3.44068 179.255 2.97283C180.175 2.50497 181.302 2.26561 182.632 2.26561C183.963 2.26561 185.091 2.50497 186.005 2.97283C186.919 3.44068 187.609 4.12069 188.081 5.01841C188.549 5.9106 188.788 6.9932 188.788 8.27161V15.975ZM195.705 0.535583C195.481 0.530139 195.318 0.5791 195.227 0.677056C195.136 0.774976 195.09 0.949038 195.095 1.18843V23.0583C195.09 23.2976 195.136 23.4718 195.227 23.5696C195.318 23.6676 195.481 23.7165 195.705 23.7111H204.632C205.927 23.7056 207.05 23.4609 207.989 22.9712C208.928 22.4816 209.655 21.7744 210.163 20.8495C210.676 19.9192 210.935 18.7985 210.94 17.4766C210.94 15.9098 210.635 14.6531 210.031 13.701C209.421 12.7544 208.517 12.107 207.314 11.7643V11.699C208.273 11.2583 208.989 10.6001 209.467 9.72419C209.939 8.84833 210.178 7.7657 210.178 6.47633C210.173 5.19788 209.944 4.12069 209.487 3.2394C209.03 2.35809 208.365 1.6835 207.487 1.2265C206.613 0.769531 205.551 0.535583 204.297 0.535583H195.705ZM207.923 6.77013C207.918 8.12472 207.588 9.14206 206.923 9.82756C206.257 10.5076 205.292 10.8503 204.023 10.8503H197.289V2.75521H204.023C205.318 2.75521 206.293 3.08708 206.943 3.75622C207.598 4.42539 207.923 5.43184 207.923 6.77013ZM207.588 20.4143C207.238 20.7734 206.806 21.0454 206.293 21.2249C205.78 21.4044 205.196 21.4915 204.541 21.4915H197.289V12.972H204.541C205.196 12.972 205.78 13.0591 206.293 13.2386C206.806 13.4181 207.238 13.6902 207.588 14.0492C207.938 14.4246 208.197 14.8761 208.37 15.4038C208.543 15.9315 208.624 16.5463 208.624 17.2481C208.624 17.9498 208.543 18.5646 208.37 19.0869C208.197 19.6146 207.938 20.0553 207.588 20.4143Z" fill="#140A32"/>
<path d="M78.3011 10.8503H72.9991V1.18843C73.0042 0.949038 72.9636 0.774976 72.8824 0.677056C72.7961 0.5791 72.6436 0.530139 72.4202 0.535583H71.4145C71.1911 0.530139 71.0288 0.5791 70.9373 0.677056C70.8459 0.774976 70.8002 0.949038 70.8053 1.18843V23.0583C70.8002 23.2976 70.8459 23.4718 70.9373 23.5696C71.0288 23.6676 71.1911 23.7165 71.4145 23.7111H72.4202C72.6436 23.7165 72.7961 23.6676 72.8824 23.5696C72.9636 23.4718 73.0042 23.2976 72.9991 23.0583V13.0699H78.3011V16.0077C78.3062 17.7213 78.6211 19.1848 79.2559 20.4034C79.8904 21.6166 80.82 22.5469 82.049 23.1888C83.273 23.8362 84.7759 24.1627 86.5587 24.1681C88.3209 24.1627 89.8089 23.8362 91.0277 23.1888C92.2465 22.5469 93.1706 21.6166 93.8003 20.4034C94.4351 19.1848 94.75 17.7213 94.7551 16.0077V8.23898C94.75 6.52529 94.4351 5.06189 93.8003 3.84329C93.1706 2.63011 92.2465 1.6998 91.0277 1.0524C89.8089 0.410442 88.3209 0.0840571 86.5587 0.0786133C84.7759 0.0840571 83.273 0.410442 82.049 1.0524C80.82 1.6998 79.8904 2.63011 79.2559 3.84329C78.6211 5.06189 78.3062 6.52529 78.3011 8.23898V10.8503ZM92.5614 16.0077C92.5614 17.2862 92.3277 18.3633 91.8655 19.2555C91.4032 20.1423 90.7278 20.8169 89.8341 21.2793C88.9455 21.7471 87.8535 21.9757 86.5587 21.9811C85.2586 21.9757 84.1565 21.7471 83.2627 21.2793C82.3639 20.8169 81.6833 20.1423 81.2211 19.2555C80.7589 18.3633 80.5256 17.2862 80.5256 16.0077V8.23898C80.5256 6.96057 80.7589 5.87794 81.2211 4.99119C81.6833 4.1044 82.3639 3.42979 83.2627 2.96194C84.1565 2.49953 85.2586 2.26561 86.5587 2.26561C87.8535 2.26561 88.9455 2.49953 89.8341 2.96194C90.7278 3.42979 91.4032 4.1044 91.8655 4.99119C92.3277 5.87794 92.5614 6.96057 92.5614 8.23898V16.0077ZM99.4783 0.535583C99.2545 0.530139 99.0921 0.5791 99.0007 0.677056C98.9093 0.774976 98.8636 0.949038 98.8687 1.18843V23.0583C98.8636 23.2976 98.9093 23.4718 99.0007 23.5696C99.0921 23.6676 99.2545 23.7165 99.4783 23.7111H100.484C100.707 23.7165 100.859 23.6676 100.946 23.5696C101.027 23.4718 101.068 23.2976 101.062 23.0583V14.9958H107.614C109.041 14.9903 110.27 14.702 111.296 14.1308C112.321 13.565 113.109 12.7436 113.662 11.6664C114.216 10.5947 114.495 9.29984 114.5 7.78203C114.495 6.26419 114.216 4.96396 113.662 3.88677C113.109 2.80961 112.321 1.98271 111.296 1.40604C110.27 0.829378 109.041 0.541027 107.614 0.535583H99.4783ZM101.062 12.8088V2.75521H107.431C108.421 2.76065 109.274 2.96194 109.985 3.35906C110.696 3.76167 111.25 4.33832 111.631 5.08363C112.017 5.83442 112.21 6.73206 112.215 7.78203C112.21 8.832 112.017 9.72964 111.631 10.4804C111.25 11.2257 110.696 11.8024 109.985 12.1995C109.274 12.6021 108.421 12.8034 107.431 12.8088H101.062ZM132.6 0.535583C132.463 0.535583 132.341 0.562804 132.234 0.611762C132.127 0.666164 132.036 0.747755 131.96 0.862007L123.184 14.5388C122.468 15.6649 121.828 16.7421 121.254 17.7649C120.686 18.7931 120.183 19.7615 119.741 20.6754H119.65C119.772 19.5493 119.863 18.4014 119.924 17.2263C119.985 16.0566 120.015 14.8652 120.015 13.6575V1.18843C120.02 0.949038 119.98 0.774976 119.898 0.677056C119.812 0.5791 119.66 0.530139 119.436 0.535583H118.431C118.208 0.530139 118.045 0.5791 117.953 0.677056C117.862 0.774976 117.816 0.949038 117.821 1.18843V23.0583C117.816 23.2976 117.862 23.4718 117.953 23.5696C118.045 23.6676 118.208 23.7165 118.431 23.7111H119.436C119.573 23.7111 119.696 23.6785 119.802 23.6186C119.909 23.5533 120 23.4663 120.076 23.3521L129.065 9.3488C129.781 8.17369 130.411 7.10198 130.959 6.13904C131.503 5.17611 131.96 4.32202 132.326 3.57127H132.386C132.249 4.73004 132.153 5.8616 132.087 6.97142C132.021 8.08121 131.99 9.16929 131.99 10.2301V23.0583C131.99 23.2976 132.031 23.4718 132.122 23.5696C132.219 23.6676 132.376 23.7165 132.6 23.7111H133.605C133.828 23.7165 133.991 23.6676 134.083 23.5696C134.174 23.4718 134.22 23.2976 134.215 23.0583V1.18843C134.22 0.949038 134.174 0.774976 134.083 0.677056C133.991 0.5791 133.828 0.530139 133.605 0.535583H132.6ZM138.328 15.975C138.333 17.6887 138.658 19.1576 139.308 20.3762C139.958 21.5948 140.903 22.5306 142.142 23.1834C143.381 23.8308 144.894 24.1627 146.677 24.1681C148.206 24.1681 149.511 23.9559 150.598 23.5261C151.679 23.1018 152.568 22.4653 153.259 21.622C153.955 20.7734 154.483 19.7179 154.843 18.4558C154.904 18.26 154.904 18.0968 154.843 17.9607C154.782 17.8302 154.66 17.7213 154.478 17.6397L153.533 17.2481C153.35 17.1991 153.193 17.21 153.055 17.2753C152.923 17.346 152.817 17.4766 152.741 17.6724C152.462 18.6625 152.07 19.4731 151.567 20.1096C151.065 20.7461 150.415 21.2195 149.618 21.5241C148.82 21.8288 147.84 21.9811 146.677 21.9811C145.362 21.9757 144.255 21.7363 143.341 21.2684C142.432 20.7951 141.741 20.1151 141.269 19.2229C140.791 18.3361 140.557 17.2644 140.553 16.0077V8.23898C140.553 6.97142 140.786 5.89427 141.253 5.00748C141.721 4.12069 142.406 3.44068 143.315 2.97283C144.224 2.50497 145.346 2.26561 146.677 2.26561C147.82 2.26017 148.785 2.41249 149.572 2.7117C150.364 3.0109 151.009 3.47331 151.512 4.09354C152.01 4.71371 152.401 5.50799 152.68 6.47633C152.756 6.65588 152.858 6.77558 152.985 6.84087C153.111 6.90613 153.274 6.91702 153.472 6.86806L154.417 6.50899C154.64 6.43285 154.777 6.32944 154.828 6.20434C154.879 6.07919 154.863 5.89968 154.782 5.66031C154.422 4.40905 153.894 3.36998 153.203 2.54304C152.512 1.71613 151.629 1.10136 150.552 0.693349C149.475 0.279896 148.185 0.0786133 146.677 0.0786133C144.874 0.0840571 143.356 0.410442 142.117 1.06329C140.877 1.71613 139.933 2.65185 139.293 3.87048C138.653 5.08907 138.333 6.55795 138.328 8.27161V15.975ZM156.976 0.535583C156.753 0.530139 156.59 0.5791 156.499 0.677056C156.407 0.774976 156.362 0.949038 156.367 1.18843V2.1024C156.362 2.34176 156.407 2.51041 156.499 2.61377C156.59 2.71169 156.753 2.75521 156.976 2.75521H163.131V23.0583C163.126 23.2976 163.172 23.4718 163.263 23.5696C163.355 23.6676 163.517 23.7165 163.741 23.7111H164.746C164.97 23.7165 165.132 23.6676 165.224 23.5696C165.315 23.4718 165.361 23.2976 165.356 23.0583V2.75521H171.511C171.734 2.75521 171.897 2.71169 171.988 2.61377C172.079 2.51041 172.125 2.34176 172.12 2.1024V1.18843C172.125 0.949038 172.079 0.774976 171.988 0.677056C171.897 0.5791 171.734 0.530139 171.511 0.535583H156.976ZM174.253 15.975C174.258 17.6887 174.583 19.1576 175.228 20.3762C175.873 21.5948 176.818 22.5306 178.062 23.1834C179.306 23.8308 180.83 24.1627 182.632 24.1681C184.425 24.1627 185.939 23.8308 187.183 23.1834C188.422 22.5306 189.366 21.5948 190.012 20.3762C190.651 19.1576 190.976 17.6887 190.981 15.975V8.27161C190.976 6.55795 190.651 5.08907 190.012 3.87048C189.366 2.65185 188.422 1.71613 187.183 1.06329C185.939 0.410442 184.425 0.0840571 182.632 0.0786133C180.83 0.0840571 179.306 0.410442 178.062 1.06329C176.818 1.71613 175.873 2.65185 175.228 3.87048C174.583 5.08907 174.258 6.55795 174.253 8.27161V15.975ZM188.788 15.975C188.788 17.2535 188.549 18.3361 188.081 19.2283C187.609 20.1205 186.919 20.806 186.005 21.2739C185.091 21.7417 183.963 21.9757 182.632 21.9811C181.302 21.9757 180.175 21.7417 179.255 21.2739C178.336 20.806 177.64 20.1205 177.163 19.2283C176.686 18.3361 176.447 17.2535 176.447 15.975V8.27161C176.447 6.9932 176.686 5.9106 177.163 5.01841C177.64 4.12069 178.336 3.44068 179.255 2.97283C180.175 2.50497 181.302 2.26561 182.632 2.26561C183.963 2.26561 185.091 2.50497 186.005 2.97283C186.919 3.44068 187.609 4.12069 188.081 5.01841C188.549 5.9106 188.788 6.9932 188.788 8.27161V15.975ZM195.705 0.535583C195.481 0.530139 195.318 0.5791 195.227 0.677056C195.136 0.774976 195.09 0.949038 195.095 1.18843V23.0583C195.09 23.2976 195.136 23.4718 195.227 23.5696C195.318 23.6676 195.481 23.7165 195.705 23.7111H204.632C205.927 23.7056 207.05 23.4609 207.989 22.9712C208.928 22.4816 209.655 21.7744 210.163 20.8495C210.676 19.9192 210.935 18.7985 210.94 17.4766C210.94 15.9098 210.635 14.6531 210.031 13.701C209.421 12.7544 208.517 12.107 207.314 11.7643V11.699C208.273 11.2583 208.989 10.6001 209.467 9.72419C209.939 8.84833 210.178 7.7657 210.178 6.47633C210.173 5.19788 209.944 4.12069 209.487 3.2394C209.03 2.35809 208.365 1.6835 207.487 1.2265C206.613 0.769531 205.551 0.535583 204.297 0.535583H195.705ZM207.923 6.77013C207.918 8.12472 207.588 9.14206 206.923 9.82756C206.257 10.5076 205.292 10.8503 204.023 10.8503H197.289V2.75521H204.023C205.318 2.75521 206.293 3.08708 206.943 3.75622C207.598 4.42539 207.923 5.43184 207.923 6.77013ZM207.588 20.4143C207.238 20.7734 206.806 21.0454 206.293 21.2249C205.78 21.4044 205.196 21.4915 204.541 21.4915H197.289V12.972H204.541C205.196 12.972 205.78 13.0591 206.293 13.2386C206.806 13.4181 207.238 13.6902 207.588 14.0492C207.938 14.4246 208.197 14.8761 208.37 15.4038C208.543 15.9315 208.624 16.5463 208.624 17.2481C208.624 17.9498 208.543 18.5646 208.37 19.0869C208.197 19.6146 207.938 20.0553 207.588 20.4143Z" fill="#140A32"/>
<path d="M6.38751 31.0537H4.96167V28.6709C4.96379 28.5532 4.94272 28.4734 4.90067 28.4292C4.8565 28.3872 4.77663 28.3662 4.65888 28.3683H4.12889C4.01114 28.3662 3.9312 28.3872 3.88703 28.4292C3.84501 28.4734 3.82398 28.5532 3.82607 28.6709V34.5712C3.82607 34.7729 3.927 34.8738 4.12889 34.8738H4.65888C4.77663 34.8759 4.8565 34.8549 4.90067 34.8128C4.94272 34.7687 4.96379 34.6889 4.96167 34.5712V32.1001H6.38751V32.6674C6.38959 33.1697 6.49897 33.5983 6.71348 33.9555C6.93007 34.3128 7.24343 34.5859 7.65563 34.775C8.06567 34.9641 8.5641 35.0608 9.1508 35.0629C9.74175 35.0608 10.2423 34.9641 10.6565 34.775C11.0687 34.5859 11.3842 34.3128 11.6008 33.9555C11.8153 33.5983 11.9246 33.1697 11.9268 32.6674V30.5746C11.9246 30.0724 11.8153 29.6438 11.6008 29.2865C11.3842 28.9293 11.0687 28.6562 10.6565 28.4671C10.2423 28.2758 9.74175 28.1813 9.1508 28.1792C8.5641 28.1813 8.06567 28.2758 7.65563 28.4671C7.24343 28.6562 6.93007 28.9293 6.71348 29.2865C6.49897 29.6438 6.38959 30.0724 6.38751 30.5746V31.0537ZM10.7911 32.6674C10.7911 32.9532 10.7238 33.1991 10.5935 33.405C10.4631 33.6089 10.2759 33.7664 10.0299 33.8757C9.78592 33.9849 9.4936 34.0417 9.1508 34.0417C8.81013 34.0417 8.51784 33.9849 8.27389 33.8757C8.03203 33.7664 7.84695 33.6089 7.71871 33.405C7.58831 33.1991 7.52522 32.9532 7.5231 32.6674V30.5746C7.52522 30.2847 7.58831 30.0367 7.71871 29.8307C7.84695 29.627 8.03203 29.4715 8.27389 29.3622C8.51784 29.255 8.81013 29.2004 9.1508 29.2004C9.67655 29.2025 10.0825 29.3223 10.3643 29.5618C10.646 29.7992 10.789 30.1376 10.7911 30.5746V32.6674ZM13.769 28.5448C13.6365 28.5973 13.5335 28.652 13.4619 28.7108C13.3904 28.7696 13.3421 28.8411 13.3147 28.9293C13.2874 29.0155 13.2748 29.1268 13.2769 29.2634V37.3448C13.2748 37.4522 13.2979 37.5278 13.3421 37.576C13.3862 37.6243 13.4619 37.6473 13.5671 37.6473H14.097C14.2148 37.6495 14.2947 37.6287 14.3389 37.5866C14.3809 37.5424 14.402 37.4624 14.3999 37.3448V34.7225C14.7279 34.836 15.0287 34.92 15.2999 34.9767C15.5733 35.0335 15.8194 35.0629 16.0402 35.0629C17.8319 35.0629 18.7278 34.2056 18.7278 32.491V30.7133C18.7278 29.8686 18.507 29.234 18.0675 28.8116C17.6258 28.3893 16.9676 28.1792 16.0907 28.1792C15.6301 28.1792 15.2074 28.2107 14.8204 28.2716C14.4356 28.3347 14.0844 28.425 13.769 28.5448ZM17.5922 32.4531C17.5922 32.9763 17.4576 33.3693 17.1842 33.634C16.9108 33.8967 16.5007 34.0291 15.9519 34.0291C15.7499 34.0291 15.5207 34.0017 15.2621 33.945C15.0013 33.8904 14.7153 33.8084 14.3999 33.7013V29.6669C14.3978 29.5933 14.4083 29.5387 14.4335 29.5009C14.4567 29.4631 14.5092 29.4316 14.5891 29.4021C14.8036 29.3391 15.0223 29.2907 15.2431 29.2592C15.4661 29.2277 15.6932 29.213 15.9266 29.213C16.4818 29.213 16.8982 29.3412 17.1758 29.5996C17.4534 29.856 17.5922 30.2405 17.5922 30.7511V32.4531ZM20.3933 28.3683C20.2756 28.3662 20.1957 28.3872 20.1515 28.4292C20.1095 28.4734 20.0884 28.5532 20.0905 28.6709V34.5712C20.0905 34.7729 20.1915 34.8738 20.3933 34.8738H20.9233C21.0495 34.8738 21.1504 34.8234 21.2261 34.7225L23.939 31.0285C24.0841 30.8205 24.2166 30.6208 24.3343 30.4296C24.4542 30.2384 24.5572 30.0514 24.6456 29.8686H24.6834C24.614 30.1964 24.5636 30.499 24.5299 30.7784C24.4984 31.0558 24.4815 31.3122 24.4815 31.5454V34.5712C24.4795 34.6889 24.5005 34.7687 24.5425 34.8128C24.5867 34.8549 24.6666 34.8759 24.7844 34.8738H25.3143C25.4321 34.8759 25.512 34.8549 25.5562 34.8128C25.5982 34.7687 25.6193 34.6889 25.6172 34.5712V28.6709C25.6193 28.5532 25.5982 28.4734 25.5562 28.4292C25.512 28.3872 25.4321 28.3662 25.3143 28.3683H24.7844C24.7213 28.3683 24.6645 28.3809 24.6162 28.4061C24.5678 28.4314 24.5257 28.4692 24.4942 28.5196L21.7434 32.2514C21.4659 32.617 21.2388 32.9953 21.0621 33.3861H21.0243C21.0937 33.115 21.1441 32.844 21.1778 32.5708C21.2093 32.2998 21.2261 32.0245 21.2261 31.7471V28.6709C21.2283 28.5532 21.2072 28.4734 21.1652 28.4292C21.121 28.3872 21.0411 28.3662 20.9233 28.3683H20.3933ZM32.8725 33.8274V28.6709C32.8725 28.5532 32.8493 28.4734 32.801 28.4292C32.7526 28.3872 32.6769 28.3662 32.5696 28.3683H28.4057C28.2985 28.3662 28.2228 28.3872 28.1744 28.4292C28.126 28.4734 28.1029 28.5532 28.1029 28.6709V30.5746C28.1029 31.0978 28.0839 31.5454 28.0482 31.9194C28.0104 32.2913 27.9578 32.5918 27.8884 32.8187C27.8127 33.052 27.7244 33.2516 27.6213 33.4176C27.5203 33.5836 27.4026 33.7202 27.2701 33.8274H26.9294C26.8243 33.8252 26.7486 33.8484 26.7044 33.8946C26.6603 33.9429 26.6371 34.0249 26.6392 34.1426V36.3237C26.6371 36.4308 26.6603 36.5065 26.7044 36.5548C26.7486 36.603 26.8243 36.6264 26.9294 36.6264H27.4215C27.5288 36.6264 27.6087 36.6008 27.6592 36.5504C27.7117 36.5002 27.737 36.4245 27.737 36.3237V34.8738H32.721V36.3237C32.721 36.4308 32.7442 36.5065 32.7925 36.5548C32.8409 36.603 32.9187 36.6264 33.0239 36.6264H33.516C33.6338 36.6264 33.7137 36.603 33.7578 36.5548C33.7999 36.5065 33.8209 36.4308 33.8188 36.3237V34.1426C33.8209 34.0249 33.7999 33.9429 33.7578 33.8946C33.7137 33.8484 33.6338 33.8252 33.516 33.8274H32.8725ZM29.2006 29.4147H31.7368V33.8274H28.5698C28.778 33.5248 28.9357 33.1087 29.0408 32.5772C29.148 32.0476 29.2006 31.4004 29.2006 30.6377V29.4147ZM35.1184 28.3683C35.0006 28.3662 34.9207 28.3872 34.8766 28.4292C34.8345 28.4734 34.8135 28.5532 34.8156 28.6709V34.5712C34.8156 34.7729 34.9165 34.8738 35.1184 34.8738H35.6484C35.7746 34.8738 35.8755 34.8234 35.9512 34.7225L38.6639 31.0285C38.8091 30.8205 38.9415 30.6208 39.0596 30.4296C39.1792 30.2384 39.2823 30.0514 39.3708 29.8686H39.4085C39.339 30.1964 39.2885 30.499 39.2549 30.7784C39.2234 31.0558 39.2066 31.3122 39.2066 31.5454V34.5712C39.2044 34.6889 39.2256 34.7687 39.2677 34.8128C39.3119 34.8549 39.3916 34.8759 39.5094 34.8738H40.0393C40.157 34.8759 40.2371 34.8549 40.2813 34.8128C40.3234 34.7687 40.3442 34.6889 40.3421 34.5712V28.6709C40.3442 28.5532 40.3234 28.4734 40.2813 28.4292C40.2371 28.3872 40.157 28.3662 40.0393 28.3683H39.5094C39.4465 28.3683 39.3894 28.3809 39.3412 28.4061C39.2929 28.4314 39.2509 28.4692 39.219 28.5196L36.4685 32.2514C36.1909 32.617 35.9638 32.9953 35.7872 33.3861H35.7493C35.8187 33.115 35.8692 32.844 35.9028 32.5708C35.9344 32.2998 35.9512 32.0245 35.9512 31.7471V28.6709C35.9533 28.5532 35.9323 28.4734 35.8902 28.4292C35.846 28.3872 35.7662 28.3662 35.6484 28.3683H35.1184ZM41.5283 30.1964C41.5261 30.997 41.7324 31.5958 42.1507 31.9951C42.5694 32.3922 43.2149 32.5918 44.0896 32.5918C44.8341 32.5918 45.364 32.5288 45.6796 32.4027V34.5712C45.6796 34.6889 45.7026 34.7687 45.7513 34.8128C45.7995 34.8549 45.8752 34.8759 45.9824 34.8738H46.5122C46.6198 34.8759 46.6955 34.8549 46.7437 34.8128C46.792 34.7687 46.8154 34.6889 46.8154 34.5712V28.6709C46.8154 28.5532 46.792 28.4734 46.7437 28.4292C46.6955 28.3872 46.6198 28.3662 46.5122 28.3683H45.9824C45.8752 28.3662 45.7995 28.3872 45.7513 28.4292C45.7026 28.4734 45.6796 28.5532 45.6796 28.6709V31.3437C45.3011 31.495 44.8217 31.5706 44.241 31.5706C43.1812 31.5706 42.6514 31.1041 42.6514 30.1712V28.6709C42.6535 28.5637 42.6301 28.4881 42.5863 28.4398C42.542 28.3914 42.4663 28.3683 42.361 28.3683H41.8311C41.7134 28.3662 41.6333 28.3872 41.5894 28.4292C41.5474 28.4734 41.5261 28.5532 41.5283 28.6709V30.1964ZM48.1527 32.4405C48.1527 32.9805 48.2558 33.447 48.4617 33.8378C48.668 34.2287 48.977 34.5292 49.3913 34.7414C49.8078 34.9536 50.3271 35.0608 50.9539 35.0629C51.6099 35.0629 52.1654 34.9557 52.6174 34.7393C53.0715 34.525 53.4208 34.1993 53.6669 33.7643C53.8055 33.55 53.7678 33.3861 53.5531 33.2726L53.2123 33.0961C53.1074 33.0268 53.017 33.0015 52.9432 33.0205C52.8675 33.0394 52.794 33.1024 52.7205 33.2096C52.5501 33.4996 52.3168 33.7181 52.0242 33.863C51.7298 34.0081 51.3766 34.0795 50.9667 34.0795C50.4156 34.0774 49.9969 33.9471 49.7091 33.6866C49.4227 33.4281 49.2779 33.0541 49.2757 32.5666V31.9614H53.3893C53.5469 31.9614 53.6647 31.9236 53.7404 31.8501C53.8183 31.7744 53.8559 31.6652 53.8559 31.5202V30.7889C53.8559 30.2636 53.7466 29.8076 53.5323 29.4168C53.3154 29.0281 52.9958 28.7234 52.5731 28.5091C52.1504 28.2927 51.6267 28.1834 51.0043 28.1792C50.3859 28.1813 49.8645 28.2864 49.4396 28.4965C49.0172 28.7087 48.6972 29.0134 48.4807 29.4147C48.2621 29.816 48.1527 30.3035 48.1527 30.8772V32.4405ZM52.7329 31.0915H49.2757V30.7259C49.2757 30.3918 49.343 30.1081 49.4732 29.8707C49.6059 29.6354 49.8016 29.4526 50.0579 29.3286C50.3146 29.2025 50.6299 29.1373 51.0043 29.1373C51.5678 29.1395 51.9968 29.2781 52.2893 29.5534C52.5837 29.8265 52.7311 30.2174 52.7329 30.7259V31.0915ZM54.9032 32.5162C54.9032 33.0562 55.0064 33.5143 55.2104 33.8946C55.4145 34.2728 55.7191 34.5607 56.1272 34.7603C56.5353 34.9599 57.044 35.0608 57.6539 35.0629C59.0797 35.0629 60.0009 34.483 60.4174 33.3231C60.4551 33.2222 60.4551 33.136 60.4192 33.0667C60.3816 32.9953 60.3099 32.9385 60.2028 32.8944L59.761 32.7683C59.6454 32.7221 59.5551 32.7158 59.4941 32.7452C59.433 32.7767 59.3785 32.8502 59.3321 32.97C59.2121 33.3357 59.0168 33.6109 58.7411 33.7937C58.4679 33.9765 58.1147 34.0669 57.6792 34.0669C57.1409 34.0627 56.735 33.9324 56.4574 33.6718C56.1799 33.4113 56.0409 33.0436 56.0387 32.5666V30.6629C56.0409 30.188 56.1799 29.8203 56.4574 29.5639C56.735 29.3075 57.1409 29.1773 57.6792 29.1752C58.1147 29.1752 58.4679 29.2634 58.7411 29.4399C59.0124 29.6164 59.2059 29.8812 59.3196 30.2342C59.3639 30.3477 59.4206 30.4212 59.4919 30.4527C59.5613 30.4864 59.6476 30.4801 59.7486 30.4359L60.1903 30.2973C60.2975 30.2594 60.3669 30.2048 60.4006 30.1355C60.432 30.064 60.4298 29.9757 60.3922 29.8686C60.2155 29.3075 59.9062 28.8852 59.4626 28.6036C59.0209 28.32 58.4427 28.1792 57.7296 28.1792C57.1028 28.1813 56.5795 28.2821 56.1608 28.4797C55.7425 28.6793 55.4291 28.9672 55.2188 29.3454C55.0086 29.7215 54.9032 30.1775 54.9032 30.7133V32.5162ZM66.0069 32.2766C65.8745 32.0056 65.7231 31.7849 65.5549 31.6126C65.3845 31.4424 65.1995 31.3185 64.9976 31.2428L67.0166 28.7213C67.1113 28.6015 67.1427 28.5133 67.1113 28.4544C67.0794 28.3977 66.9847 28.3683 66.8271 28.3683H66.3477C66.2278 28.3662 66.1331 28.3704 66.0658 28.3788C65.9967 28.3872 65.9396 28.4082 65.8935 28.4418C65.8493 28.4734 65.8028 28.5259 65.7546 28.5953L63.8746 31.0285H63.7609H62.7644V28.6709C62.7662 28.5532 62.7432 28.4734 62.6971 28.4292C62.6484 28.3872 62.5665 28.3662 62.4488 28.3683H61.9441C61.8264 28.3662 61.7441 28.3872 61.6958 28.4292C61.6498 28.4734 61.6264 28.5532 61.6286 28.6709V34.5586C61.6264 34.6763 61.6498 34.7582 61.6958 34.8065C61.7441 34.8528 61.8264 34.8759 61.9441 34.8738H62.4488C62.5665 34.8759 62.6484 34.8528 62.6971 34.8065C62.7432 34.7582 62.7662 34.6763 62.7644 34.5586V32.0749H63.9126C64.1079 32.0749 64.2761 32.0959 64.4173 32.1422C64.5581 32.1884 64.678 32.2619 64.7789 32.3649C64.8799 32.4657 64.9702 32.6002 65.0481 32.7683L65.9188 34.5965C65.9546 34.6742 65.9901 34.7351 66.0281 34.775C66.0639 34.815 66.1144 34.8422 66.1751 34.8549C66.2384 34.8675 66.3247 34.8738 66.4358 34.8738H66.9281C67.0732 34.8738 67.1595 34.8464 67.1888 34.7918C67.2184 34.7351 67.1932 34.6447 67.1175 34.5208L66.0069 32.2766ZM68.5052 28.3683C68.3875 28.3662 68.3078 28.3872 68.2635 28.4292C68.2215 28.4734 68.2003 28.5532 68.2025 28.6709V34.5712C68.2025 34.7729 68.3034 34.8738 68.5052 34.8738H69.0355C69.1617 34.8738 69.2626 34.8234 69.3383 34.7225L72.0509 31.0285C72.1961 30.8205 72.3285 30.6208 72.4462 30.4296C72.5662 30.2384 72.6693 30.0514 72.7574 29.8686H72.7955C72.726 30.1964 72.6755 30.499 72.6419 30.7784C72.6104 31.0558 72.5936 31.3122 72.5936 31.5454V34.5712C72.5914 34.6889 72.6126 34.7687 72.6547 34.8128C72.6986 34.8549 72.7786 34.8759 72.8964 34.8738H73.4263C73.544 34.8759 73.6241 34.8549 73.6684 34.8128C73.7104 34.7687 73.7313 34.6889 73.7291 34.5712V28.6709C73.7313 28.5532 73.7104 28.4734 73.6684 28.4292C73.6241 28.3872 73.544 28.3662 73.4263 28.3683H72.8964C72.8331 28.3683 72.7765 28.3809 72.7282 28.4061C72.6799 28.4314 72.6379 28.4692 72.606 28.5196L69.8554 32.2514C69.5778 32.617 69.3507 32.9953 69.1741 33.3861H69.1364C69.2055 33.115 69.256 32.844 69.2896 32.5708C69.3215 32.2998 69.3383 32.0245 69.3383 31.7471V28.6709C69.3401 28.5532 69.3193 28.4734 69.2772 28.4292C69.233 28.3872 69.1532 28.3662 69.0355 28.3683H68.5052ZM75.0667 32.4405C75.0667 32.9805 75.1699 33.447 75.3757 33.8378C75.582 34.2287 75.891 34.5292 76.3053 34.7414C76.7218 34.9536 77.2411 35.0608 77.8679 35.0629C78.5239 35.0629 79.079 34.9557 79.5314 34.7393C79.9855 34.525 80.3348 34.1993 80.5805 33.7643C80.7195 33.55 80.6814 33.3861 80.4672 33.2726L80.1263 33.0961C80.0214 33.0268 79.9307 33.0015 79.8572 33.0205C79.7815 33.0394 79.708 33.1024 79.6345 33.2096C79.4641 33.4996 79.2304 33.7181 78.9382 33.863C78.6439 34.0081 78.2906 34.0795 77.8803 34.0795C77.3296 34.0774 76.9109 33.9471 76.6227 33.6866C76.3368 33.4281 76.1916 33.0541 76.1898 32.5666V31.9614H80.303C80.4609 31.9614 80.5787 31.9236 80.6544 31.8501C80.7323 31.7744 80.77 31.6652 80.77 31.5202V30.7889C80.77 30.2636 80.6606 29.8076 80.446 29.4168C80.2295 29.0281 79.9099 28.7234 79.4871 28.5091C79.0644 28.2927 78.5407 28.1834 77.9183 28.1792C77.3 28.1813 76.7785 28.2864 76.3536 28.4965C75.9308 28.7087 75.6112 29.0134 75.3948 29.4147C75.1761 29.816 75.0667 30.3035 75.0667 30.8772V32.4405ZM79.6469 31.0915H76.1898V30.7259C76.1898 30.3918 76.257 30.1081 76.3872 29.8707C76.52 29.6354 76.7152 29.4526 76.9719 29.3286C77.2287 29.2025 77.5439 29.1373 77.9183 29.1373C78.4819 29.1395 78.9108 29.2781 79.2034 29.5534C79.4977 29.8265 79.6447 30.2174 79.6469 30.7259V31.0915ZM89.2871 32.2766C89.1544 32.0056 89.003 31.7849 88.8348 31.6126C88.6647 31.4424 88.4793 31.3185 88.2775 31.2428L90.2964 28.7213C90.3911 28.6015 90.4226 28.5133 90.3911 28.4544C90.3597 28.3977 90.2649 28.3683 90.1073 28.3683H89.6276C89.508 28.3662 89.4133 28.3704 89.346 28.3788C89.2765 28.3872 89.2198 28.4082 89.1734 28.4418C89.1291 28.4734 89.0831 28.5259 89.0348 28.5953L87.1544 31.0285H87.0411H86.0442V28.6709C86.0464 28.5532 86.023 28.4734 85.9769 28.4292C85.9287 28.3872 85.8464 28.3662 85.7286 28.3683H85.224C85.1062 28.3662 85.0243 28.3872 84.9761 28.4292C84.9296 28.4734 84.9066 28.5532 84.9088 28.6709V34.5586C84.9066 34.6763 84.9296 34.7582 84.9761 34.8065C85.0243 34.8528 85.1062 34.8759 85.224 34.8738H85.7286C85.8464 34.8759 85.9287 34.8528 85.9769 34.8065C86.023 34.7582 86.0464 34.6763 86.0442 34.5586V32.0749H87.1925C87.3881 32.0749 87.5563 32.0959 87.6971 32.1422C87.8379 32.1884 87.9578 32.2619 88.0588 32.3649C88.1597 32.4657 88.2504 32.6002 88.3279 32.7683L89.1986 34.5965C89.2345 34.6742 89.2703 34.7351 89.308 34.775C89.3438 34.815 89.3942 34.8422 89.4553 34.8549C89.5182 34.8675 89.6045 34.8738 89.7161 34.8738H90.2083C90.3531 34.8738 90.4394 34.8464 90.469 34.7918C90.4983 34.7351 90.473 34.6447 90.3973 34.5208L89.2871 32.2766ZM91.2808 32.6548C91.2826 33.1571 91.3964 33.5878 91.6213 33.945C91.8462 34.3044 92.168 34.5796 92.5889 34.7729C93.0094 34.9641 93.5163 35.0608 94.1072 35.0629C94.7106 35.0608 95.2236 34.9641 95.6442 34.7729C96.0669 34.5796 96.3887 34.3044 96.6118 33.945C96.8326 33.5878 96.9438 33.1571 96.946 32.6548V30.5998C96.9438 30.0934 96.8326 29.6606 96.6118 29.2992C96.3887 28.9398 96.0669 28.6625 95.6442 28.4713C95.2236 28.2779 94.7106 28.1813 94.1072 28.1792C93.5163 28.1813 93.0094 28.2779 92.5889 28.4713C92.168 28.6625 91.8462 28.9398 91.6213 29.2992C91.3964 29.6606 91.2826 30.0934 91.2808 30.5998V32.6548ZM95.823 32.6548C95.823 32.9448 95.7535 33.1949 95.6171 33.4008C95.4803 33.6067 95.2847 33.7664 95.028 33.8757C94.7738 33.9849 94.4667 34.0417 94.1072 34.0417C93.7518 34.0417 93.449 33.9849 93.1945 33.8757C92.9399 33.7664 92.7465 33.6067 92.6097 33.4008C92.473 33.1949 92.4057 32.9448 92.4035 32.6548V30.5872C92.4057 30.2951 92.473 30.0472 92.6097 29.8413C92.7465 29.6332 92.9399 29.4757 93.1945 29.3664C93.449 29.2571 93.7518 29.2004 94.1072 29.2004C94.4667 29.2004 94.7738 29.2571 95.028 29.3664C95.2847 29.4757 95.4803 29.6332 95.6171 29.8413C95.7535 30.0472 95.823 30.2951 95.823 30.5872V32.6548ZM102.94 28.3683C102.832 28.3662 102.757 28.3872 102.708 28.4292C102.66 28.4734 102.637 28.5532 102.637 28.6709V31.0285H99.4444V28.6709C99.4466 28.5532 99.4253 28.4734 99.3833 28.4292C99.3394 28.3872 99.2593 28.3662 99.1416 28.3683H98.6117C98.4939 28.3662 98.4139 28.3872 98.3696 28.4292C98.3279 28.4734 98.3067 28.5532 98.3089 28.6709V34.5712C98.3089 34.7729 98.4098 34.8738 98.6117 34.8738H99.1416C99.2593 34.8759 99.3394 34.8549 99.3833 34.8128C99.4253 34.7687 99.4466 34.6889 99.4444 34.5712V32.0749H102.637V34.5712C102.637 34.6889 102.66 34.7687 102.708 34.8128C102.757 34.8549 102.832 34.8759 102.94 34.8738H103.469C103.577 34.8759 103.652 34.8549 103.701 34.8128C103.749 34.7687 103.772 34.6889 103.772 34.5712V28.6709C103.772 28.5532 103.749 28.4734 103.701 28.4292C103.652 28.3872 103.577 28.3662 103.469 28.3683H102.94ZM105.122 32.5162C105.122 33.0562 105.225 33.5143 105.43 33.8946C105.634 34.2728 105.939 34.5607 106.346 34.7603C106.754 34.9599 107.263 35.0608 107.873 35.0629C109.299 35.0629 110.22 34.483 110.636 33.3231C110.674 33.2222 110.674 33.136 110.639 33.0667C110.601 32.9953 110.529 32.9385 110.422 32.8944L109.98 32.7683C109.865 32.7221 109.774 32.7158 109.713 32.7452C109.652 32.7767 109.598 32.8502 109.552 32.97C109.432 33.3357 109.236 33.6109 108.961 33.7937C108.687 33.9765 108.334 34.0669 107.898 34.0669C107.36 34.0627 106.954 33.9324 106.677 33.6718C106.399 33.4113 106.26 33.0436 106.258 32.5666V30.6629C106.26 30.188 106.399 29.8203 106.677 29.5639C106.954 29.3075 107.36 29.1773 107.898 29.1752C108.334 29.1752 108.687 29.2634 108.961 29.4399C109.232 29.6164 109.425 29.8812 109.539 30.2342C109.583 30.3477 109.64 30.4212 109.711 30.4527C109.78 30.4864 109.867 30.4801 109.968 30.4359L110.409 30.2973C110.517 30.2594 110.586 30.2048 110.62 30.1355C110.651 30.064 110.649 29.9757 110.611 29.8686C110.435 29.3075 110.125 28.8852 109.682 28.6036C109.24 28.32 108.662 28.1792 107.949 28.1792C107.322 28.1813 106.799 28.2821 106.38 28.4797C105.962 28.6793 105.648 28.9672 105.438 29.3454C105.228 29.7215 105.122 30.1775 105.122 30.7133V32.5162ZM116.466 28.3683C116.359 28.3662 116.283 28.3872 116.235 28.4292C116.186 28.4734 116.163 28.5532 116.163 28.6709V33.5248C115.879 33.613 115.602 33.6802 115.332 33.7244C115.061 33.7685 114.801 33.7895 114.548 33.7895C114.018 33.7895 113.62 33.6634 113.356 33.4134C113.091 33.1613 112.958 32.7872 112.958 32.2892V28.6709C112.96 28.5637 112.937 28.4881 112.893 28.4398C112.849 28.3914 112.773 28.3683 112.668 28.3683H112.138C112.02 28.3662 111.941 28.3872 111.896 28.4292C111.854 28.4734 111.833 28.5532 111.835 28.6709V32.3271C111.835 33.1592 112.05 33.7832 112.477 34.1993C112.906 34.6153 113.545 34.8234 114.396 34.8234C114.662 34.8234 114.941 34.8002 115.238 34.7561C115.532 34.712 115.841 34.6468 116.163 34.5586V35.2394C116.163 35.7941 116.029 36.2102 115.757 36.4876C115.488 36.7649 115.084 36.9037 114.548 36.9037C114.188 36.9037 113.879 36.8343 113.619 36.6936C113.36 36.5548 113.147 36.3426 112.983 36.0589C112.935 35.9916 112.887 35.9433 112.842 35.9139C112.796 35.8845 112.746 35.874 112.691 35.8803C112.636 35.8845 112.569 35.9076 112.491 35.9454L112.125 36.1471C112.018 36.2039 111.953 36.2711 111.93 36.3489C111.907 36.4266 111.93 36.5191 111.999 36.6264C112.245 37.055 112.58 37.3766 113.007 37.5907C113.431 37.8051 113.949 37.9122 114.561 37.9122C116.378 37.9122 117.286 37.0046 117.286 35.189V28.6709C117.288 28.5532 117.267 28.4734 117.225 28.4292C117.181 28.3872 117.101 28.3662 116.983 28.3683H116.466ZM119.81 28.3683C119.692 28.3662 119.612 28.3872 119.568 28.4292C119.526 28.4734 119.505 28.5532 119.507 28.6709V30.6377C119.507 31.2933 119.475 31.8417 119.41 32.2829C119.343 32.7242 119.242 33.0583 119.103 33.2852C119.013 33.4344 118.931 33.55 118.855 33.634C118.779 33.7181 118.699 33.7895 118.615 33.8442C118.531 33.8988 118.428 33.9555 118.308 34.0165C118.239 34.0606 118.194 34.111 118.176 34.1699C118.157 34.2266 118.163 34.2938 118.194 34.3695L118.46 34.8738C118.504 34.9557 118.554 35.0083 118.615 35.0335C118.674 35.0587 118.743 35.0566 118.826 35.0251C118.996 34.9431 119.149 34.857 119.286 34.7666C119.421 34.6742 119.549 34.5628 119.669 34.4304C119.791 34.298 119.913 34.132 120.037 33.9282C120.226 33.6256 120.367 33.2033 120.462 32.6654C120.556 32.1274 120.605 31.4761 120.605 30.7133V29.4147H123.04V34.5712C123.038 34.6889 123.059 34.7687 123.101 34.8128C123.145 34.8549 123.225 34.8759 123.343 34.8738H123.86C123.967 34.8759 124.043 34.8549 124.091 34.8128C124.14 34.7687 124.163 34.6889 124.163 34.5712V28.6709C124.163 28.5532 124.14 28.4734 124.091 28.4292C124.043 28.3872 123.967 28.3662 123.86 28.3683H119.81ZM126.775 30.3351V28.6709C126.777 28.5532 126.756 28.4734 126.714 28.4292C126.67 28.3872 126.59 28.3662 126.472 28.3683H125.942C125.824 28.3662 125.744 28.3872 125.7 28.4292C125.658 28.4734 125.637 28.5532 125.639 28.6709V34.5712C125.637 34.6889 125.658 34.7687 125.7 34.8128C125.744 34.8549 125.824 34.8759 125.942 34.8738H128.731C129.216 34.8717 129.633 34.7792 129.978 34.5985C130.322 34.4178 130.588 34.1573 130.773 33.8168C130.958 33.4765 131.05 33.0688 131.052 32.5918C131.05 32.119 130.958 31.7156 130.773 31.3794C130.588 31.0432 130.322 30.7847 129.978 30.6062C129.633 30.4275 129.216 30.3372 128.731 30.3351H126.775ZM126.775 33.8652V31.3563H128.592C128.993 31.3605 129.305 31.4697 129.527 31.6862C129.75 31.9026 129.864 32.2031 129.866 32.5918C129.864 32.9932 129.75 33.3042 129.527 33.5269C129.305 33.7496 128.993 33.861 128.592 33.8652H126.775ZM131.873 28.3683C131.754 28.3662 131.675 28.3872 131.63 28.4292C131.588 28.4734 131.568 28.5532 131.569 28.6709V29.1121C131.568 29.2193 131.588 29.2949 131.63 29.3433C131.675 29.3916 131.754 29.4147 131.873 29.4147H133.714V34.5712C133.713 34.6889 133.734 34.7687 133.776 34.8128C133.82 34.8549 133.9 34.8759 134.017 34.8738H134.548C134.652 34.8759 134.728 34.8549 134.772 34.8128C134.817 34.7687 134.84 34.6889 134.838 34.5712V29.4147H136.68C136.787 29.4147 136.863 29.3916 136.911 29.3433C136.96 29.2949 136.983 29.2193 136.983 29.1121V28.6709C136.983 28.5532 136.96 28.4734 136.911 28.4292C136.863 28.3872 136.787 28.3662 136.68 28.3683H131.873ZM137.815 29.503C137.765 29.6038 137.752 29.69 137.78 29.7593C137.805 29.8307 137.872 29.8875 137.979 29.9316L138.371 30.1081C138.448 30.1376 138.509 30.1522 138.551 30.1522C138.593 30.1522 138.631 30.1376 138.665 30.106C138.699 30.0724 138.739 30.0241 138.787 29.9568C138.945 29.6984 139.153 29.5051 139.414 29.379C139.672 29.2508 139.986 29.1878 140.352 29.1878C140.72 29.1878 141.014 29.2466 141.235 29.3601C141.456 29.4757 141.613 29.6438 141.71 29.8665C141.807 30.0913 141.855 30.3645 141.853 30.6881V31.1672C141.601 31.1356 141.355 31.1125 141.115 31.0999C140.875 31.0852 140.642 31.0789 140.415 31.0789C139.74 31.0768 139.197 31.1398 138.783 31.268C138.369 31.3962 138.068 31.6042 137.879 31.8942C137.691 32.1863 137.599 32.5729 137.601 33.0583C137.601 33.405 137.651 33.7055 137.75 33.9576C137.851 34.2098 137.998 34.4136 138.194 34.5712C138.389 34.7351 138.669 34.857 139.033 34.9389C139.397 35.0209 139.84 35.0629 140.364 35.0629C140.837 35.0629 141.254 35.0356 141.615 34.9788C141.975 34.9242 142.282 34.8422 142.534 34.7351C142.652 34.6868 142.743 34.6342 142.81 34.5796C142.875 34.525 142.921 34.4535 142.949 34.3653C142.976 34.277 142.989 34.1615 142.989 34.0165V30.7259C142.991 30.1985 142.907 29.7447 142.734 29.3643C142.562 28.9861 142.284 28.694 141.901 28.4881C141.517 28.2842 141.01 28.1813 140.377 28.1792C139.752 28.1792 139.226 28.2884 138.798 28.5091C138.371 28.7297 138.042 29.0617 137.815 29.503ZM141.853 33.6887C141.853 33.758 141.839 33.8147 141.807 33.861C141.775 33.9051 141.727 33.9408 141.664 33.9661C141.374 34.0669 140.907 34.1173 140.263 34.1173C139.874 34.1173 139.569 34.0795 139.346 34.0017C139.123 33.9261 138.964 33.8084 138.871 33.653C138.778 33.4954 138.734 33.2978 138.736 33.0583C138.734 32.8103 138.783 32.6086 138.882 32.4531C138.98 32.2976 139.142 32.1821 139.369 32.1085C139.599 32.035 139.904 31.9993 140.288 31.9993C140.472 31.9993 140.694 32.0077 140.957 32.0266C141.22 32.0434 141.519 32.0686 141.853 32.1001V33.6887ZM149.79 33.8274V28.6709C149.79 28.5532 149.767 28.4734 149.718 28.4292C149.67 28.3872 149.594 28.3662 149.487 28.3683H148.957C148.85 28.3662 148.774 28.3872 148.725 28.4292C148.677 28.4734 148.654 28.5532 148.654 28.6709V33.8274H145.588V28.6709C145.59 28.5532 145.569 28.4734 145.527 28.4292C145.483 28.3872 145.403 28.3662 145.285 28.3683H144.755C144.553 28.3683 144.452 28.4692 144.452 28.6709V34.5712C144.45 34.6889 144.471 34.7687 144.514 34.8128C144.557 34.8549 144.637 34.8759 144.755 34.8738H149.638V36.3237C149.638 36.4308 149.662 36.5065 149.71 36.5548C149.758 36.603 149.836 36.6264 149.941 36.6264H150.433C150.551 36.6264 150.631 36.603 150.675 36.5548C150.717 36.5065 150.738 36.4308 150.736 36.3237V34.1426C150.738 34.0249 150.717 33.9429 150.675 33.8946C150.631 33.8484 150.551 33.8252 150.433 33.8274H149.79Z" fill="#140A32"/>
<path d="M152.036 28.3686C151.918 28.3665 151.838 28.3875 151.794 28.4296C151.752 28.4737 151.731 28.5535 151.733 28.6712V34.5715C151.733 34.7732 151.834 34.8741 152.036 34.8741H152.565C152.692 34.8741 152.793 34.8237 152.868 34.7228L155.581 31.0288C155.726 30.8208 155.859 30.6211 155.977 30.43C156.097 30.2388 156.2 30.0517 156.288 29.8689H156.326C156.256 30.1967 156.206 30.4993 156.172 30.7787C156.141 31.0561 156.124 31.3125 156.124 31.5457V34.5715C156.122 34.6892 156.143 34.7691 156.185 34.8132C156.229 34.8552 156.309 34.8762 156.427 34.8741H156.957C157.074 34.8762 157.154 34.8552 157.198 34.8132C157.24 34.7691 157.262 34.6892 157.259 34.5715V28.6712C157.262 28.5535 157.24 28.4737 157.198 28.4296C157.154 28.3875 157.074 28.3665 156.957 28.3686H156.427C156.363 28.3686 156.307 28.3812 156.259 28.4065C156.21 28.4317 156.168 28.4695 156.136 28.5199L153.386 32.2517C153.108 32.6173 152.881 32.9956 152.704 33.3864H152.666C152.736 33.1154 152.786 32.8443 152.82 32.5711C152.851 32.3001 152.868 32.0248 152.868 31.7474V28.6712C152.87 28.5535 152.85 28.4737 152.808 28.4296C152.763 28.3875 152.683 28.3665 152.565 28.3686H152.036ZM159.127 28.3686C159.009 28.3665 158.929 28.3875 158.885 28.4296C158.843 28.4737 158.822 28.5535 158.824 28.6712V34.5715C158.824 34.7732 158.925 34.8741 159.127 34.8741H159.657C159.783 34.8741 159.884 34.8237 159.96 34.7228L162.673 31.0288C162.818 30.8208 162.95 30.6211 163.068 30.43C163.188 30.2388 163.291 30.0517 163.379 29.8689H163.417C163.348 30.1967 163.297 30.4993 163.264 30.7787C163.232 31.0561 163.215 31.3125 163.215 31.5457V34.5715C163.213 34.6892 163.234 34.7691 163.276 34.8132C163.32 34.8552 163.4 34.8762 163.518 34.8741H164.048C164.166 34.8762 164.245 34.8552 164.29 34.8132C164.332 34.7691 164.353 34.6892 164.351 34.5715V28.6712C164.353 28.5535 164.332 28.4737 164.29 28.4296C164.245 28.3875 164.166 28.3665 164.048 28.3686H163.518C163.455 28.3686 163.398 28.3812 163.35 28.4065C163.301 28.4317 163.259 28.4695 163.228 28.5199L160.477 32.2517C160.2 32.6173 159.972 32.9956 159.796 33.3864H159.758C159.827 33.1154 159.878 32.8443 159.911 32.5711C159.943 32.3001 159.96 32.0248 159.96 31.7474V28.6712C159.962 28.5535 159.941 28.4737 159.899 28.4296C159.855 28.3875 159.775 28.3665 159.657 28.3686H159.127ZM168.591 32.6552C168.592 33.1574 168.706 33.5881 168.931 33.9454C169.156 34.3047 169.478 34.5799 169.898 34.7732C170.319 34.9645 170.826 35.0611 171.417 35.0632C172.02 35.0611 172.533 34.9645 172.954 34.7732C173.377 34.5799 173.698 34.3047 173.921 33.9454C174.142 33.5881 174.254 33.1574 174.256 32.6552V30.6002C174.254 30.0937 174.142 29.6609 173.921 29.2995C173.698 28.9401 173.377 28.6628 172.954 28.4716C172.533 28.2783 172.02 28.1816 171.417 28.1795C170.826 28.1816 170.319 28.2783 169.898 28.4716C169.478 28.6628 169.156 28.9401 168.931 29.2995C168.706 29.6609 168.592 30.0937 168.591 30.6002V32.6552ZM173.133 32.6552C173.133 32.9452 173.063 33.1952 172.927 33.4011C172.79 33.607 172.594 33.7667 172.338 33.876C172.084 33.9853 171.776 34.042 171.417 34.042C171.061 34.042 170.759 33.9853 170.504 33.876C170.25 33.7667 170.056 33.607 169.919 33.4011C169.783 33.1952 169.715 32.9452 169.713 32.6552V30.5876C169.715 30.2955 169.783 30.0475 169.919 29.8416C170.056 29.6335 170.25 29.476 170.504 29.3667C170.759 29.2574 171.061 29.2007 171.417 29.2007C171.776 29.2007 172.084 29.2574 172.338 29.3667C172.594 29.476 172.79 29.6335 172.927 29.8416C173.063 30.0475 173.133 30.2955 173.133 30.5876V32.6552ZM180.249 28.3686C180.142 28.3665 180.066 28.3875 180.018 28.4296C179.97 28.4737 179.946 28.5535 179.946 28.6712V31.0288H176.754V28.6712C176.756 28.5535 176.735 28.4737 176.693 28.4296C176.649 28.3875 176.569 28.3665 176.451 28.3686H175.921C175.804 28.3665 175.724 28.3875 175.679 28.4296C175.637 28.4737 175.616 28.5535 175.619 28.6712V34.5715C175.619 34.7732 175.72 34.8741 175.921 34.8741H176.451C176.569 34.8762 176.649 34.8552 176.693 34.8132C176.735 34.7691 176.756 34.6892 176.754 34.5715V32.0752H179.946V34.5715C179.946 34.6892 179.97 34.7691 180.018 34.8132C180.066 34.8552 180.142 34.8762 180.249 34.8741H180.779C180.886 34.8762 180.962 34.8552 181.011 34.8132C181.059 34.7691 181.082 34.6892 181.082 34.5715V28.6712C181.082 28.5535 181.059 28.4737 181.011 28.4296C180.962 28.3875 180.886 28.3665 180.779 28.3686H180.249ZM183.631 28.3686C183.513 28.3665 183.433 28.3875 183.389 28.4296C183.347 28.4737 183.326 28.5535 183.328 28.6712V30.638C183.328 31.2936 183.297 31.842 183.231 32.2833C183.164 32.7245 183.063 33.0586 182.924 33.2856C182.834 33.4347 182.752 33.5503 182.676 33.6344C182.6 33.7184 182.521 33.7899 182.436 33.8445C182.352 33.8991 182.249 33.9559 182.129 34.0168C182.06 34.0609 182.016 34.1114 181.997 34.1702C181.978 34.2269 181.984 34.2942 182.016 34.3698L182.281 34.8741C182.325 34.9561 182.375 35.0086 182.436 35.0338C182.495 35.059 182.565 35.0569 182.647 35.0254C182.817 34.9435 182.971 34.8573 183.107 34.7669C183.242 34.6745 183.37 34.5631 183.49 34.4307C183.612 34.2984 183.734 34.1324 183.858 33.9285C184.047 33.6259 184.188 33.2036 184.283 32.6657C184.377 32.1278 184.426 31.4764 184.426 30.7136V29.415H186.861V34.5715C186.859 34.6892 186.88 34.7691 186.922 34.8132C186.966 34.8552 187.046 34.8762 187.164 34.8741H187.681C187.789 34.8762 187.864 34.8552 187.913 34.8132C187.961 34.7691 187.984 34.6892 187.984 34.5715V28.6712C187.984 28.5535 187.961 28.4737 187.913 28.4296C187.864 28.3875 187.789 28.3665 187.681 28.3686H183.631ZM189.334 29.5033C189.284 29.6041 189.271 29.6903 189.299 29.7596C189.324 29.8311 189.391 29.8878 189.498 29.9319L189.889 30.1085C189.967 30.1379 190.028 30.1526 190.07 30.1526C190.112 30.1526 190.15 30.1379 190.184 30.1063C190.217 30.0727 190.257 30.0244 190.306 29.9572C190.464 29.6987 190.672 29.5054 190.932 29.3793C191.191 29.2512 191.504 29.1881 191.87 29.1881C192.238 29.1881 192.533 29.2469 192.753 29.3604C192.974 29.476 193.132 29.6441 193.229 29.8668C193.325 30.0917 193.374 30.3648 193.372 30.6884V31.1675C193.12 31.136 192.873 31.1129 192.634 31.1003C192.394 31.0855 192.16 31.0792 191.933 31.0792C191.258 31.0771 190.716 31.1402 190.302 31.2684C189.887 31.3966 189.587 31.6045 189.397 31.8945C189.21 32.1866 189.117 32.5732 189.12 33.0586C189.12 33.4053 189.17 33.7058 189.269 33.958C189.37 34.2101 189.517 34.4139 189.713 34.5715C189.908 34.7354 190.188 34.8573 190.552 34.9392C190.916 35.0212 191.359 35.0632 191.883 35.0632C192.356 35.0632 192.772 35.0359 193.134 34.9791C193.494 34.9245 193.801 34.8426 194.053 34.7354C194.171 34.6871 194.262 34.6346 194.329 34.5799C194.394 34.5253 194.44 34.4538 194.467 34.3656C194.495 34.2774 194.507 34.1618 194.507 34.0168V30.7262C194.509 30.1988 194.425 29.7449 194.253 29.3646C194.081 28.9864 193.803 28.6943 193.42 28.4884C193.035 28.2846 192.529 28.1816 191.896 28.1795C191.271 28.1795 190.745 28.2888 190.316 28.5094C189.889 28.73 189.561 29.062 189.334 29.5033ZM193.372 33.689C193.372 33.7583 193.357 33.8151 193.325 33.8613C193.294 33.9054 193.246 33.9411 193.182 33.9664C192.892 34.0672 192.425 34.1176 191.782 34.1176C191.393 34.1176 191.088 34.0798 190.865 34.0021C190.642 33.9264 190.482 33.8087 190.39 33.6533C190.297 33.4957 190.253 33.2982 190.255 33.0586C190.253 32.8107 190.302 32.6089 190.4 32.4535C190.499 32.298 190.661 32.1824 190.888 32.1088C191.117 32.0353 191.422 31.9996 191.807 31.9996C191.99 31.9996 192.213 32.008 192.476 32.0269C192.739 32.0437 193.038 32.0689 193.372 32.1005V33.689ZM200.728 26.1371C200.747 26.074 200.747 26.0194 200.726 25.9753C200.703 25.929 200.659 25.8912 200.589 25.8597L200.148 25.6958C200.021 25.658 199.933 25.6958 199.883 25.8093C199.719 26.364 199.353 26.6414 198.785 26.6414C198.501 26.6414 198.27 26.5721 198.091 26.4334C197.912 26.2947 197.782 26.0866 197.7 25.8093C197.675 25.7525 197.637 25.7168 197.586 25.7021C197.536 25.6874 197.473 25.6895 197.397 25.7085L197.006 25.8597C196.937 25.8786 196.892 25.9122 196.869 25.9606C196.848 26.0089 196.848 26.0677 196.867 26.1371C197.012 26.5847 197.243 26.9187 197.561 27.1415C197.879 27.3621 198.287 27.4735 198.785 27.4735C199.29 27.4735 199.704 27.3621 200.026 27.1415C200.349 26.9187 200.583 26.5847 200.728 26.1371ZM196.274 28.3686C196.156 28.3665 196.076 28.3875 196.032 28.4296C195.99 28.4737 195.969 28.5535 195.971 28.6712V34.5715C195.971 34.7732 196.072 34.8741 196.274 34.8741H196.804C196.93 34.8741 197.031 34.8237 197.107 34.7228L199.82 31.0288C199.965 30.8208 200.097 30.6211 200.215 30.43C200.335 30.2388 200.438 30.0517 200.526 29.8689H200.564C200.495 30.1967 200.444 30.4993 200.411 30.7787C200.379 31.0561 200.362 31.3125 200.362 31.5457V34.5715C200.36 34.6892 200.381 34.7691 200.423 34.8132C200.467 34.8552 200.547 34.8762 200.665 34.8741H201.195C201.313 34.8762 201.393 34.8552 201.437 34.8132C201.479 34.7691 201.5 34.6892 201.498 34.5715V28.6712C201.5 28.5535 201.479 28.4737 201.437 28.4296C201.393 28.3875 201.313 28.3665 201.195 28.3686H200.665C200.602 28.3686 200.545 28.3812 200.497 28.4065C200.448 28.4317 200.406 28.4695 200.375 28.5199L197.624 32.2517C197.346 32.6173 197.119 32.9956 196.943 33.3864H196.905C196.974 33.1154 197.025 32.8443 197.058 32.5711C197.09 32.3001 197.107 32.0248 197.107 31.7474V28.6712C197.109 28.5535 197.088 28.4737 197.046 28.4296C197.002 28.3875 196.922 28.3665 196.804 28.3686H196.274ZM207.693 28.3686C207.586 28.3665 207.51 28.3875 207.462 28.4296C207.413 28.4737 207.39 28.5535 207.39 28.6712V31.0288H204.198V28.6712C204.2 28.5535 204.179 28.4737 204.137 28.4296C204.093 28.3875 204.013 28.3665 203.895 28.3686H203.365C203.248 28.3665 203.167 28.3875 203.123 28.4296C203.081 28.4737 203.06 28.5535 203.062 28.6712V34.5715C203.062 34.7732 203.163 34.8741 203.365 34.8741H203.895C204.013 34.8762 204.093 34.8552 204.137 34.8132C204.179 34.7691 204.2 34.6892 204.198 34.5715V32.0752H207.39V34.5715C207.39 34.6892 207.413 34.7691 207.462 34.8132C207.51 34.8552 207.586 34.8762 207.693 34.8741H208.223C208.331 34.8762 208.406 34.8552 208.455 34.8132C208.503 34.7691 208.526 34.6892 208.526 34.5715V28.6712C208.526 28.5535 208.503 28.4737 208.455 28.4296C208.406 28.3875 208.331 28.3665 208.223 28.3686H207.693Z" fill="#140A32"/>
<path d="M6.38751 31.0537H4.96167V28.6709C4.96379 28.5532 4.94272 28.4734 4.90067 28.4292C4.8565 28.3872 4.77663 28.3662 4.65888 28.3683H4.12889C4.01114 28.3662 3.9312 28.3872 3.88703 28.4292C3.84501 28.4734 3.82398 28.5532 3.82607 28.6709V34.5712C3.82607 34.7729 3.927 34.8738 4.12889 34.8738H4.65888C4.77663 34.8759 4.8565 34.8549 4.90067 34.8128C4.94272 34.7687 4.96379 34.6889 4.96167 34.5712V32.1001H6.38751V32.6674C6.38959 33.1697 6.49897 33.5983 6.71348 33.9555C6.93007 34.3128 7.24343 34.5859 7.65563 34.775C8.06567 34.9641 8.5641 35.0608 9.1508 35.0629C9.74175 35.0608 10.2423 34.9641 10.6565 34.775C11.0687 34.5859 11.3842 34.3128 11.6008 33.9555C11.8153 33.5983 11.9246 33.1697 11.9268 32.6674V30.5746C11.9246 30.0724 11.8153 29.6438 11.6008 29.2865C11.3842 28.9293 11.0687 28.6562 10.6565 28.4671C10.2423 28.2758 9.74175 28.1813 9.1508 28.1792C8.5641 28.1813 8.06567 28.2758 7.65563 28.4671C7.24343 28.6562 6.93007 28.9293 6.71348 29.2865C6.49897 29.6438 6.38959 30.0724 6.38751 30.5746V31.0537ZM10.7911 32.6674C10.7911 32.9532 10.7238 33.1991 10.5935 33.405C10.4631 33.6089 10.2759 33.7664 10.0299 33.8757C9.78592 33.9849 9.4936 34.0417 9.1508 34.0417C8.81013 34.0417 8.51784 33.9849 8.27389 33.8757C8.03203 33.7664 7.84695 33.6089 7.71871 33.405C7.58831 33.1991 7.52522 32.9532 7.5231 32.6674V30.5746C7.52522 30.2847 7.58831 30.0367 7.71871 29.8307C7.84695 29.627 8.03203 29.4715 8.27389 29.3622C8.51784 29.255 8.81013 29.2004 9.1508 29.2004C9.67655 29.2025 10.0825 29.3223 10.3643 29.5618C10.646 29.7992 10.789 30.1376 10.7911 30.5746V32.6674ZM13.769 28.5448C13.6365 28.5973 13.5335 28.652 13.4619 28.7108C13.3904 28.7696 13.3421 28.8411 13.3147 28.9293C13.2874 29.0155 13.2748 29.1268 13.2769 29.2634V37.3448C13.2748 37.4522 13.2979 37.5278 13.3421 37.576C13.3862 37.6243 13.4619 37.6473 13.5671 37.6473H14.097C14.2148 37.6495 14.2947 37.6287 14.3389 37.5866C14.3809 37.5424 14.402 37.4624 14.3999 37.3448V34.7225C14.7279 34.836 15.0287 34.92 15.2999 34.9767C15.5733 35.0335 15.8194 35.0629 16.0402 35.0629C17.8319 35.0629 18.7278 34.2056 18.7278 32.491V30.7133C18.7278 29.8686 18.507 29.234 18.0675 28.8116C17.6258 28.3893 16.9676 28.1792 16.0907 28.1792C15.6301 28.1792 15.2074 28.2107 14.8204 28.2716C14.4356 28.3347 14.0844 28.425 13.769 28.5448ZM17.5922 32.4531C17.5922 32.9763 17.4576 33.3693 17.1842 33.634C16.9108 33.8967 16.5007 34.0291 15.9519 34.0291C15.7499 34.0291 15.5207 34.0017 15.2621 33.945C15.0013 33.8904 14.7153 33.8084 14.3999 33.7013V29.6669C14.3978 29.5933 14.4083 29.5387 14.4335 29.5009C14.4567 29.4631 14.5092 29.4316 14.5891 29.4021C14.8036 29.3391 15.0223 29.2907 15.2431 29.2592C15.4661 29.2277 15.6932 29.213 15.9266 29.213C16.4818 29.213 16.8982 29.3412 17.1758 29.5996C17.4534 29.856 17.5922 30.2405 17.5922 30.7511V32.4531ZM20.3933 28.3683C20.2756 28.3662 20.1957 28.3872 20.1515 28.4292C20.1095 28.4734 20.0884 28.5532 20.0905 28.6709V34.5712C20.0905 34.7729 20.1915 34.8738 20.3933 34.8738H20.9233C21.0495 34.8738 21.1504 34.8234 21.2261 34.7225L23.939 31.0285C24.0841 30.8205 24.2166 30.6208 24.3343 30.4296C24.4542 30.2384 24.5572 30.0514 24.6456 29.8686H24.6834C24.614 30.1964 24.5636 30.499 24.5299 30.7784C24.4984 31.0558 24.4815 31.3122 24.4815 31.5454V34.5712C24.4795 34.6889 24.5005 34.7687 24.5425 34.8128C24.5867 34.8549 24.6666 34.8759 24.7844 34.8738H25.3143C25.4321 34.8759 25.512 34.8549 25.5562 34.8128C25.5982 34.7687 25.6193 34.6889 25.6172 34.5712V28.6709C25.6193 28.5532 25.5982 28.4734 25.5562 28.4292C25.512 28.3872 25.4321 28.3662 25.3143 28.3683H24.7844C24.7213 28.3683 24.6645 28.3809 24.6162 28.4061C24.5678 28.4314 24.5257 28.4692 24.4942 28.5196L21.7434 32.2514C21.4659 32.617 21.2388 32.9953 21.0621 33.3861H21.0243C21.0937 33.115 21.1441 32.844 21.1778 32.5708C21.2093 32.2998 21.2261 32.0245 21.2261 31.7471V28.6709C21.2283 28.5532 21.2072 28.4734 21.1652 28.4292C21.121 28.3872 21.0411 28.3662 20.9233 28.3683H20.3933ZM32.8725 33.8274V28.6709C32.8725 28.5532 32.8493 28.4734 32.801 28.4292C32.7526 28.3872 32.6769 28.3662 32.5696 28.3683H28.4057C28.2985 28.3662 28.2228 28.3872 28.1744 28.4292C28.126 28.4734 28.1029 28.5532 28.1029 28.6709V30.5746C28.1029 31.0978 28.0839 31.5454 28.0482 31.9194C28.0104 32.2913 27.9578 32.5918 27.8884 32.8187C27.8127 33.052 27.7244 33.2516 27.6213 33.4176C27.5203 33.5836 27.4026 33.7202 27.2701 33.8274H26.9294C26.8243 33.8252 26.7486 33.8484 26.7044 33.8946C26.6603 33.9429 26.6371 34.0249 26.6392 34.1426V36.3237C26.6371 36.4308 26.6603 36.5065 26.7044 36.5548C26.7486 36.603 26.8243 36.6264 26.9294 36.6264H27.4215C27.5288 36.6264 27.6087 36.6008 27.6592 36.5504C27.7117 36.5002 27.737 36.4245 27.737 36.3237V34.8738H32.721V36.3237C32.721 36.4308 32.7442 36.5065 32.7925 36.5548C32.8409 36.603 32.9187 36.6264 33.0239 36.6264H33.516C33.6338 36.6264 33.7137 36.603 33.7578 36.5548C33.7999 36.5065 33.8209 36.4308 33.8188 36.3237V34.1426C33.8209 34.0249 33.7999 33.9429 33.7578 33.8946C33.7137 33.8484 33.6338 33.8252 33.516 33.8274H32.8725ZM29.2006 29.4147H31.7368V33.8274H28.5698C28.778 33.5248 28.9357 33.1087 29.0408 32.5772C29.148 32.0476 29.2006 31.4004 29.2006 30.6377V29.4147ZM35.1184 28.3683C35.0006 28.3662 34.9207 28.3872 34.8766 28.4292C34.8345 28.4734 34.8135 28.5532 34.8156 28.6709V34.5712C34.8156 34.7729 34.9165 34.8738 35.1184 34.8738H35.6484C35.7746 34.8738 35.8755 34.8234 35.9512 34.7225L38.6639 31.0285C38.8091 30.8205 38.9415 30.6208 39.0596 30.4296C39.1792 30.2384 39.2823 30.0514 39.3708 29.8686H39.4085C39.339 30.1964 39.2885 30.499 39.2549 30.7784C39.2234 31.0558 39.2066 31.3122 39.2066 31.5454V34.5712C39.2044 34.6889 39.2256 34.7687 39.2677 34.8128C39.3119 34.8549 39.3916 34.8759 39.5094 34.8738H40.0393C40.157 34.8759 40.2371 34.8549 40.2813 34.8128C40.3234 34.7687 40.3442 34.6889 40.3421 34.5712V28.6709C40.3442 28.5532 40.3234 28.4734 40.2813 28.4292C40.2371 28.3872 40.157 28.3662 40.0393 28.3683H39.5094C39.4465 28.3683 39.3894 28.3809 39.3412 28.4061C39.2929 28.4314 39.2509 28.4692 39.219 28.5196L36.4685 32.2514C36.1909 32.617 35.9638 32.9953 35.7872 33.3861H35.7493C35.8187 33.115 35.8692 32.844 35.9028 32.5708C35.9344 32.2998 35.9512 32.0245 35.9512 31.7471V28.6709C35.9533 28.5532 35.9323 28.4734 35.8902 28.4292C35.846 28.3872 35.7662 28.3662 35.6484 28.3683H35.1184ZM41.5283 30.1964C41.5261 30.997 41.7324 31.5958 42.1507 31.9951C42.5694 32.3922 43.2149 32.5918 44.0896 32.5918C44.8341 32.5918 45.364 32.5288 45.6796 32.4027V34.5712C45.6796 34.6889 45.7026 34.7687 45.7513 34.8128C45.7995 34.8549 45.8752 34.8759 45.9824 34.8738H46.5122C46.6198 34.8759 46.6955 34.8549 46.7437 34.8128C46.792 34.7687 46.8154 34.6889 46.8154 34.5712V28.6709C46.8154 28.5532 46.792 28.4734 46.7437 28.4292C46.6955 28.3872 46.6198 28.3662 46.5122 28.3683H45.9824C45.8752 28.3662 45.7995 28.3872 45.7513 28.4292C45.7026 28.4734 45.6796 28.5532 45.6796 28.6709V31.3437C45.3011 31.495 44.8217 31.5706 44.241 31.5706C43.1812 31.5706 42.6514 31.1041 42.6514 30.1712V28.6709C42.6535 28.5637 42.6301 28.4881 42.5863 28.4398C42.542 28.3914 42.4663 28.3683 42.361 28.3683H41.8311C41.7134 28.3662 41.6333 28.3872 41.5894 28.4292C41.5474 28.4734 41.5261 28.5532 41.5283 28.6709V30.1964ZM48.1527 32.4405C48.1527 32.9805 48.2558 33.447 48.4617 33.8378C48.668 34.2287 48.977 34.5292 49.3913 34.7414C49.8078 34.9536 50.3271 35.0608 50.9539 35.0629C51.6099 35.0629 52.1654 34.9557 52.6174 34.7393C53.0715 34.525 53.4208 34.1993 53.6669 33.7643C53.8055 33.55 53.7678 33.3861 53.5531 33.2726L53.2123 33.0961C53.1074 33.0268 53.017 33.0015 52.9432 33.0205C52.8675 33.0394 52.794 33.1024 52.7205 33.2096C52.5501 33.4996 52.3168 33.7181 52.0242 33.863C51.7298 34.0081 51.3766 34.0795 50.9667 34.0795C50.4156 34.0774 49.9969 33.9471 49.7091 33.6866C49.4227 33.4281 49.2779 33.0541 49.2757 32.5666V31.9614H53.3893C53.5469 31.9614 53.6647 31.9236 53.7404 31.8501C53.8183 31.7744 53.8559 31.6652 53.8559 31.5202V30.7889C53.8559 30.2636 53.7466 29.8076 53.5323 29.4168C53.3154 29.0281 52.9958 28.7234 52.5731 28.5091C52.1504 28.2927 51.6267 28.1834 51.0043 28.1792C50.3859 28.1813 49.8645 28.2864 49.4396 28.4965C49.0172 28.7087 48.6972 29.0134 48.4807 29.4147C48.2621 29.816 48.1527 30.3035 48.1527 30.8772V32.4405ZM52.7329 31.0915H49.2757V30.7259C49.2757 30.3918 49.343 30.1081 49.4732 29.8707C49.6059 29.6354 49.8016 29.4526 50.0579 29.3286C50.3146 29.2025 50.6299 29.1373 51.0043 29.1373C51.5678 29.1395 51.9968 29.2781 52.2893 29.5534C52.5837 29.8265 52.7311 30.2174 52.7329 30.7259V31.0915ZM54.9032 32.5162C54.9032 33.0562 55.0064 33.5143 55.2104 33.8946C55.4145 34.2728 55.7191 34.5607 56.1272 34.7603C56.5353 34.9599 57.044 35.0608 57.6539 35.0629C59.0797 35.0629 60.0009 34.483 60.4174 33.3231C60.4551 33.2222 60.4551 33.136 60.4192 33.0667C60.3816 32.9953 60.3099 32.9385 60.2028 32.8944L59.761 32.7683C59.6454 32.7221 59.5551 32.7158 59.4941 32.7452C59.433 32.7767 59.3785 32.8502 59.3321 32.97C59.2121 33.3357 59.0168 33.6109 58.7411 33.7937C58.4679 33.9765 58.1147 34.0669 57.6792 34.0669C57.1409 34.0627 56.735 33.9324 56.4574 33.6718C56.1799 33.4113 56.0409 33.0436 56.0387 32.5666V30.6629C56.0409 30.188 56.1799 29.8203 56.4574 29.5639C56.735 29.3075 57.1409 29.1773 57.6792 29.1752C58.1147 29.1752 58.4679 29.2634 58.7411 29.4399C59.0124 29.6164 59.2059 29.8812 59.3196 30.2342C59.3639 30.3477 59.4206 30.4212 59.4919 30.4527C59.5613 30.4864 59.6476 30.4801 59.7486 30.4359L60.1903 30.2973C60.2975 30.2594 60.3669 30.2048 60.4006 30.1355C60.432 30.064 60.4298 29.9757 60.3922 29.8686C60.2155 29.3075 59.9062 28.8852 59.4626 28.6036C59.0209 28.32 58.4427 28.1792 57.7296 28.1792C57.1028 28.1813 56.5795 28.2821 56.1608 28.4797C55.7425 28.6793 55.4291 28.9672 55.2188 29.3454C55.0086 29.7215 54.9032 30.1775 54.9032 30.7133V32.5162ZM66.0069 32.2766C65.8745 32.0056 65.7231 31.7849 65.5549 31.6126C65.3845 31.4424 65.1995 31.3185 64.9976 31.2428L67.0166 28.7213C67.1113 28.6015 67.1427 28.5133 67.1113 28.4544C67.0794 28.3977 66.9847 28.3683 66.8271 28.3683H66.3477C66.2278 28.3662 66.1331 28.3704 66.0658 28.3788C65.9967 28.3872 65.9396 28.4082 65.8935 28.4418C65.8493 28.4734 65.8028 28.5259 65.7546 28.5953L63.8746 31.0285H63.7609H62.7644V28.6709C62.7662 28.5532 62.7432 28.4734 62.6971 28.4292C62.6484 28.3872 62.5665 28.3662 62.4488 28.3683H61.9441C61.8264 28.3662 61.7441 28.3872 61.6958 28.4292C61.6498 28.4734 61.6264 28.5532 61.6286 28.6709V34.5586C61.6264 34.6763 61.6498 34.7582 61.6958 34.8065C61.7441 34.8528 61.8264 34.8759 61.9441 34.8738H62.4488C62.5665 34.8759 62.6484 34.8528 62.6971 34.8065C62.7432 34.7582 62.7662 34.6763 62.7644 34.5586V32.0749H63.9126C64.1079 32.0749 64.2761 32.0959 64.4173 32.1422C64.5581 32.1884 64.678 32.2619 64.7789 32.3649C64.8799 32.4657 64.9702 32.6002 65.0481 32.7683L65.9188 34.5965C65.9546 34.6742 65.9901 34.7351 66.0281 34.775C66.0639 34.815 66.1144 34.8422 66.1751 34.8549C66.2384 34.8675 66.3247 34.8738 66.4358 34.8738H66.9281C67.0732 34.8738 67.1595 34.8464 67.1888 34.7918C67.2184 34.7351 67.1932 34.6447 67.1175 34.5208L66.0069 32.2766ZM68.5052 28.3683C68.3875 28.3662 68.3078 28.3872 68.2635 28.4292C68.2215 28.4734 68.2003 28.5532 68.2025 28.6709V34.5712C68.2025 34.7729 68.3034 34.8738 68.5052 34.8738H69.0355C69.1617 34.8738 69.2626 34.8234 69.3383 34.7225L72.0509 31.0285C72.1961 30.8205 72.3285 30.6208 72.4462 30.4296C72.5662 30.2384 72.6693 30.0514 72.7574 29.8686H72.7955C72.726 30.1964 72.6755 30.499 72.6419 30.7784C72.6104 31.0558 72.5936 31.3122 72.5936 31.5454V34.5712C72.5914 34.6889 72.6126 34.7687 72.6547 34.8128C72.6986 34.8549 72.7786 34.8759 72.8964 34.8738H73.4263C73.544 34.8759 73.6241 34.8549 73.6684 34.8128C73.7104 34.7687 73.7313 34.6889 73.7291 34.5712V28.6709C73.7313 28.5532 73.7104 28.4734 73.6684 28.4292C73.6241 28.3872 73.544 28.3662 73.4263 28.3683H72.8964C72.8331 28.3683 72.7765 28.3809 72.7282 28.4061C72.6799 28.4314 72.6379 28.4692 72.606 28.5196L69.8554 32.2514C69.5778 32.617 69.3507 32.9953 69.1741 33.3861H69.1364C69.2055 33.115 69.256 32.844 69.2896 32.5708C69.3215 32.2998 69.3383 32.0245 69.3383 31.7471V28.6709C69.3401 28.5532 69.3193 28.4734 69.2772 28.4292C69.233 28.3872 69.1532 28.3662 69.0355 28.3683H68.5052ZM75.0667 32.4405C75.0667 32.9805 75.1699 33.447 75.3757 33.8378C75.582 34.2287 75.891 34.5292 76.3053 34.7414C76.7218 34.9536 77.2411 35.0608 77.8679 35.0629C78.5239 35.0629 79.079 34.9557 79.5314 34.7393C79.9855 34.525 80.3348 34.1993 80.5805 33.7643C80.7195 33.55 80.6814 33.3861 80.4672 33.2726L80.1263 33.0961C80.0214 33.0268 79.9307 33.0015 79.8572 33.0205C79.7815 33.0394 79.708 33.1024 79.6345 33.2096C79.4641 33.4996 79.2304 33.7181 78.9382 33.863C78.6439 34.0081 78.2906 34.0795 77.8803 34.0795C77.3296 34.0774 76.9109 33.9471 76.6227 33.6866C76.3368 33.4281 76.1916 33.0541 76.1898 32.5666V31.9614H80.303C80.4609 31.9614 80.5787 31.9236 80.6544 31.8501C80.7323 31.7744 80.77 31.6652 80.77 31.5202V30.7889C80.77 30.2636 80.6606 29.8076 80.446 29.4168C80.2295 29.0281 79.9099 28.7234 79.4871 28.5091C79.0644 28.2927 78.5407 28.1834 77.9183 28.1792C77.3 28.1813 76.7785 28.2864 76.3536 28.4965C75.9308 28.7087 75.6112 29.0134 75.3948 29.4147C75.1761 29.816 75.0667 30.3035 75.0667 30.8772V32.4405ZM79.6469 31.0915H76.1898V30.7259C76.1898 30.3918 76.257 30.1081 76.3872 29.8707C76.52 29.6354 76.7152 29.4526 76.9719 29.3286C77.2287 29.2025 77.5439 29.1373 77.9183 29.1373C78.4819 29.1395 78.9108 29.2781 79.2034 29.5534C79.4977 29.8265 79.6447 30.2174 79.6469 30.7259V31.0915ZM89.2871 32.2766C89.1544 32.0056 89.003 31.7849 88.8348 31.6126C88.6647 31.4424 88.4793 31.3185 88.2775 31.2428L90.2964 28.7213C90.3911 28.6015 90.4226 28.5133 90.3911 28.4544C90.3597 28.3977 90.2649 28.3683 90.1073 28.3683H89.6276C89.508 28.3662 89.4133 28.3704 89.346 28.3788C89.2765 28.3872 89.2198 28.4082 89.1734 28.4418C89.1291 28.4734 89.0831 28.5259 89.0348 28.5953L87.1544 31.0285H87.0411H86.0442V28.6709C86.0464 28.5532 86.023 28.4734 85.9769 28.4292C85.9287 28.3872 85.8464 28.3662 85.7286 28.3683H85.224C85.1062 28.3662 85.0243 28.3872 84.9761 28.4292C84.9296 28.4734 84.9066 28.5532 84.9088 28.6709V34.5586C84.9066 34.6763 84.9296 34.7582 84.9761 34.8065C85.0243 34.8528 85.1062 34.8759 85.224 34.8738H85.7286C85.8464 34.8759 85.9287 34.8528 85.9769 34.8065C86.023 34.7582 86.0464 34.6763 86.0442 34.5586V32.0749H87.1925C87.3881 32.0749 87.5563 32.0959 87.6971 32.1422C87.8379 32.1884 87.9578 32.2619 88.0588 32.3649C88.1597 32.4657 88.2504 32.6002 88.3279 32.7683L89.1986 34.5965C89.2345 34.6742 89.2703 34.7351 89.308 34.775C89.3438 34.815 89.3942 34.8422 89.4553 34.8549C89.5182 34.8675 89.6045 34.8738 89.7161 34.8738H90.2083C90.3531 34.8738 90.4394 34.8464 90.469 34.7918C90.4983 34.7351 90.473 34.6447 90.3973 34.5208L89.2871 32.2766ZM91.2808 32.6548C91.2826 33.1571 91.3964 33.5878 91.6213 33.945C91.8462 34.3044 92.168 34.5796 92.5889 34.7729C93.0094 34.9641 93.5163 35.0608 94.1072 35.0629C94.7106 35.0608 95.2236 34.9641 95.6442 34.7729C96.0669 34.5796 96.3887 34.3044 96.6118 33.945C96.8326 33.5878 96.9438 33.1571 96.946 32.6548V30.5998C96.9438 30.0934 96.8326 29.6606 96.6118 29.2992C96.3887 28.9398 96.0669 28.6625 95.6442 28.4713C95.2236 28.2779 94.7106 28.1813 94.1072 28.1792C93.5163 28.1813 93.0094 28.2779 92.5889 28.4713C92.168 28.6625 91.8462 28.9398 91.6213 29.2992C91.3964 29.6606 91.2826 30.0934 91.2808 30.5998V32.6548ZM95.823 32.6548C95.823 32.9448 95.7535 33.1949 95.6171 33.4008C95.4803 33.6067 95.2847 33.7664 95.028 33.8757C94.7738 33.9849 94.4667 34.0417 94.1072 34.0417C93.7518 34.0417 93.449 33.9849 93.1945 33.8757C92.9399 33.7664 92.7465 33.6067 92.6097 33.4008C92.473 33.1949 92.4057 32.9448 92.4035 32.6548V30.5872C92.4057 30.2951 92.473 30.0472 92.6097 29.8413C92.7465 29.6332 92.9399 29.4757 93.1945 29.3664C93.449 29.2571 93.7518 29.2004 94.1072 29.2004C94.4667 29.2004 94.7738 29.2571 95.028 29.3664C95.2847 29.4757 95.4803 29.6332 95.6171 29.8413C95.7535 30.0472 95.823 30.2951 95.823 30.5872V32.6548ZM102.94 28.3683C102.832 28.3662 102.757 28.3872 102.708 28.4292C102.66 28.4734 102.637 28.5532 102.637 28.6709V31.0285H99.4444V28.6709C99.4466 28.5532 99.4253 28.4734 99.3833 28.4292C99.3394 28.3872 99.2593 28.3662 99.1416 28.3683H98.6117C98.4939 28.3662 98.4139 28.3872 98.3696 28.4292C98.3279 28.4734 98.3067 28.5532 98.3089 28.6709V34.5712C98.3089 34.7729 98.4098 34.8738 98.6117 34.8738H99.1416C99.2593 34.8759 99.3394 34.8549 99.3833 34.8128C99.4253 34.7687 99.4466 34.6889 99.4444 34.5712V32.0749H102.637V34.5712C102.637 34.6889 102.66 34.7687 102.708 34.8128C102.757 34.8549 102.832 34.8759 102.94 34.8738H103.469C103.577 34.8759 103.652 34.8549 103.701 34.8128C103.749 34.7687 103.772 34.6889 103.772 34.5712V28.6709C103.772 28.5532 103.749 28.4734 103.701 28.4292C103.652 28.3872 103.577 28.3662 103.469 28.3683H102.94ZM105.122 32.5162C105.122 33.0562 105.225 33.5143 105.43 33.8946C105.634 34.2728 105.939 34.5607 106.346 34.7603C106.754 34.9599 107.263 35.0608 107.873 35.0629C109.299 35.0629 110.22 34.483 110.636 33.3231C110.674 33.2222 110.674 33.136 110.639 33.0667C110.601 32.9953 110.529 32.9385 110.422 32.8944L109.98 32.7683C109.865 32.7221 109.774 32.7158 109.713 32.7452C109.652 32.7767 109.598 32.8502 109.552 32.97C109.432 33.3357 109.236 33.6109 108.961 33.7937C108.687 33.9765 108.334 34.0669 107.898 34.0669C107.36 34.0627 106.954 33.9324 106.677 33.6718C106.399 33.4113 106.26 33.0436 106.258 32.5666V30.6629C106.26 30.188 106.399 29.8203 106.677 29.5639C106.954 29.3075 107.36 29.1773 107.898 29.1752C108.334 29.1752 108.687 29.2634 108.961 29.4399C109.232 29.6164 109.425 29.8812 109.539 30.2342C109.583 30.3477 109.64 30.4212 109.711 30.4527C109.78 30.4864 109.867 30.4801 109.968 30.4359L110.409 30.2973C110.517 30.2594 110.586 30.2048 110.62 30.1355C110.651 30.064 110.649 29.9757 110.611 29.8686C110.435 29.3075 110.125 28.8852 109.682 28.6036C109.24 28.32 108.662 28.1792 107.949 28.1792C107.322 28.1813 106.799 28.2821 106.38 28.4797C105.962 28.6793 105.648 28.9672 105.438 29.3454C105.228 29.7215 105.122 30.1775 105.122 30.7133V32.5162ZM116.466 28.3683C116.359 28.3662 116.283 28.3872 116.235 28.4292C116.186 28.4734 116.163 28.5532 116.163 28.6709V33.5248C115.879 33.613 115.602 33.6802 115.332 33.7244C115.061 33.7685 114.801 33.7895 114.548 33.7895C114.018 33.7895 113.62 33.6634 113.356 33.4134C113.091 33.1613 112.958 32.7872 112.958 32.2892V28.6709C112.96 28.5637 112.937 28.4881 112.893 28.4398C112.849 28.3914 112.773 28.3683 112.668 28.3683H112.138C112.02 28.3662 111.941 28.3872 111.896 28.4292C111.854 28.4734 111.833 28.5532 111.835 28.6709V32.3271C111.835 33.1592 112.05 33.7832 112.477 34.1993C112.906 34.6153 113.545 34.8234 114.396 34.8234C114.662 34.8234 114.941 34.8002 115.238 34.7561C115.532 34.712 115.841 34.6468 116.163 34.5586V35.2394C116.163 35.7941 116.029 36.2102 115.757 36.4876C115.488 36.7649 115.084 36.9037 114.548 36.9037C114.188 36.9037 113.879 36.8343 113.619 36.6936C113.36 36.5548 113.147 36.3426 112.983 36.0589C112.935 35.9916 112.887 35.9433 112.842 35.9139C112.796 35.8845 112.746 35.874 112.691 35.8803C112.636 35.8845 112.569 35.9076 112.491 35.9454L112.125 36.1471C112.018 36.2039 111.953 36.2711 111.93 36.3489C111.907 36.4266 111.93 36.5191 111.999 36.6264C112.245 37.055 112.58 37.3766 113.007 37.5907C113.431 37.8051 113.949 37.9122 114.561 37.9122C116.378 37.9122 117.286 37.0046 117.286 35.189V28.6709C117.288 28.5532 117.267 28.4734 117.225 28.4292C117.181 28.3872 117.101 28.3662 116.983 28.3683H116.466ZM119.81 28.3683C119.692 28.3662 119.612 28.3872 119.568 28.4292C119.526 28.4734 119.505 28.5532 119.507 28.6709V30.6377C119.507 31.2933 119.475 31.8417 119.41 32.2829C119.343 32.7242 119.242 33.0583 119.103 33.2852C119.013 33.4344 118.931 33.55 118.855 33.634C118.779 33.7181 118.699 33.7895 118.615 33.8442C118.531 33.8988 118.428 33.9555 118.308 34.0165C118.239 34.0606 118.194 34.111 118.176 34.1699C118.157 34.2266 118.163 34.2938 118.194 34.3695L118.46 34.8738C118.504 34.9557 118.554 35.0083 118.615 35.0335C118.674 35.0587 118.743 35.0566 118.826 35.0251C118.996 34.9431 119.149 34.857 119.286 34.7666C119.421 34.6742 119.549 34.5628 119.669 34.4304C119.791 34.298 119.913 34.132 120.037 33.9282C120.226 33.6256 120.367 33.2033 120.462 32.6654C120.556 32.1274 120.605 31.4761 120.605 30.7133V29.4147H123.04V34.5712C123.038 34.6889 123.059 34.7687 123.101 34.8128C123.145 34.8549 123.225 34.8759 123.343 34.8738H123.86C123.967 34.8759 124.043 34.8549 124.091 34.8128C124.14 34.7687 124.163 34.6889 124.163 34.5712V28.6709C124.163 28.5532 124.14 28.4734 124.091 28.4292C124.043 28.3872 123.967 28.3662 123.86 28.3683H119.81ZM126.775 30.3351V28.6709C126.777 28.5532 126.756 28.4734 126.714 28.4292C126.67 28.3872 126.59 28.3662 126.472 28.3683H125.942C125.824 28.3662 125.744 28.3872 125.7 28.4292C125.658 28.4734 125.637 28.5532 125.639 28.6709V34.5712C125.637 34.6889 125.658 34.7687 125.7 34.8128C125.744 34.8549 125.824 34.8759 125.942 34.8738H128.731C129.216 34.8717 129.633 34.7792 129.978 34.5985C130.322 34.4178 130.588 34.1573 130.773 33.8168C130.958 33.4765 131.05 33.0688 131.052 32.5918C131.05 32.119 130.958 31.7156 130.773 31.3794C130.588 31.0432 130.322 30.7847 129.978 30.6062C129.633 30.4275 129.216 30.3372 128.731 30.3351H126.775ZM126.775 33.8652V31.3563H128.592C128.993 31.3605 129.305 31.4697 129.527 31.6862C129.75 31.9026 129.864 32.2031 129.866 32.5918C129.864 32.9932 129.75 33.3042 129.527 33.5269C129.305 33.7496 128.993 33.861 128.592 33.8652H126.775ZM131.873 28.3683C131.754 28.3662 131.675 28.3872 131.63 28.4292C131.588 28.4734 131.568 28.5532 131.569 28.6709V29.1121C131.568 29.2193 131.588 29.2949 131.63 29.3433C131.675 29.3916 131.754 29.4147 131.873 29.4147H133.714V34.5712C133.713 34.6889 133.734 34.7687 133.776 34.8128C133.82 34.8549 133.9 34.8759 134.017 34.8738H134.548C134.652 34.8759 134.728 34.8549 134.772 34.8128C134.817 34.7687 134.84 34.6889 134.838 34.5712V29.4147H136.68C136.787 29.4147 136.863 29.3916 136.911 29.3433C136.96 29.2949 136.983 29.2193 136.983 29.1121V28.6709C136.983 28.5532 136.96 28.4734 136.911 28.4292C136.863 28.3872 136.787 28.3662 136.68 28.3683H131.873ZM137.815 29.503C137.765 29.6038 137.752 29.69 137.78 29.7593C137.805 29.8307 137.872 29.8875 137.979 29.9316L138.371 30.1081C138.448 30.1376 138.509 30.1522 138.551 30.1522C138.593 30.1522 138.631 30.1376 138.665 30.106C138.699 30.0724 138.739 30.0241 138.787 29.9568C138.945 29.6984 139.153 29.5051 139.414 29.379C139.672 29.2508 139.986 29.1878 140.352 29.1878C140.72 29.1878 141.014 29.2466 141.235 29.3601C141.456 29.4757 141.613 29.6438 141.71 29.8665C141.807 30.0913 141.855 30.3645 141.853 30.6881V31.1672C141.601 31.1356 141.355 31.1125 141.115 31.0999C140.875 31.0852 140.642 31.0789 140.415 31.0789C139.74 31.0768 139.197 31.1398 138.783 31.268C138.369 31.3962 138.068 31.6042 137.879 31.8942C137.691 32.1863 137.599 32.5729 137.601 33.0583C137.601 33.405 137.651 33.7055 137.75 33.9576C137.851 34.2098 137.998 34.4136 138.194 34.5712C138.389 34.7351 138.669 34.857 139.033 34.9389C139.397 35.0209 139.84 35.0629 140.364 35.0629C140.837 35.0629 141.254 35.0356 141.615 34.9788C141.975 34.9242 142.282 34.8422 142.534 34.7351C142.652 34.6868 142.743 34.6342 142.81 34.5796C142.875 34.525 142.921 34.4535 142.949 34.3653C142.976 34.277 142.989 34.1615 142.989 34.0165V30.7259C142.991 30.1985 142.907 29.7447 142.734 29.3643C142.562 28.9861 142.284 28.694 141.901 28.4881C141.517 28.2842 141.01 28.1813 140.377 28.1792C139.752 28.1792 139.226 28.2884 138.798 28.5091C138.371 28.7297 138.042 29.0617 137.815 29.503ZM141.853 33.6887C141.853 33.758 141.839 33.8147 141.807 33.861C141.775 33.9051 141.727 33.9408 141.664 33.9661C141.374 34.0669 140.907 34.1173 140.263 34.1173C139.874 34.1173 139.569 34.0795 139.346 34.0017C139.123 33.9261 138.964 33.8084 138.871 33.653C138.778 33.4954 138.734 33.2978 138.736 33.0583C138.734 32.8103 138.783 32.6086 138.882 32.4531C138.98 32.2976 139.142 32.1821 139.369 32.1085C139.599 32.035 139.904 31.9993 140.288 31.9993C140.472 31.9993 140.694 32.0077 140.957 32.0266C141.22 32.0434 141.519 32.0686 141.853 32.1001V33.6887ZM149.79 33.8274V28.6709C149.79 28.5532 149.767 28.4734 149.718 28.4292C149.67 28.3872 149.594 28.3662 149.487 28.3683H148.957C148.85 28.3662 148.774 28.3872 148.725 28.4292C148.677 28.4734 148.654 28.5532 148.654 28.6709V33.8274H145.588V28.6709C145.59 28.5532 145.569 28.4734 145.527 28.4292C145.483 28.3872 145.403 28.3662 145.285 28.3683H144.755C144.553 28.3683 144.452 28.4692 144.452 28.6709V34.5712C144.45 34.6889 144.471 34.7687 144.514 34.8128C144.557 34.8549 144.637 34.8759 144.755 34.8738H149.638V36.3237C149.638 36.4308 149.662 36.5065 149.71 36.5548C149.758 36.603 149.836 36.6264 149.941 36.6264H150.433C150.551 36.6264 150.631 36.603 150.675 36.5548C150.717 36.5065 150.738 36.4308 150.736 36.3237V34.1426C150.738 34.0249 150.717 33.9429 150.675 33.8946C150.631 33.8484 150.551 33.8252 150.433 33.8274H149.79Z" fill="#140A32"/>
<path d="M152.036 28.3686C151.918 28.3665 151.838 28.3875 151.794 28.4296C151.752 28.4737 151.731 28.5535 151.733 28.6712V34.5715C151.733 34.7732 151.834 34.8741 152.036 34.8741H152.565C152.692 34.8741 152.793 34.8237 152.868 34.7228L155.581 31.0288C155.726 30.8208 155.859 30.6211 155.977 30.43C156.097 30.2388 156.2 30.0517 156.288 29.8689H156.326C156.256 30.1967 156.206 30.4993 156.172 30.7787C156.141 31.0561 156.124 31.3125 156.124 31.5457V34.5715C156.122 34.6892 156.143 34.7691 156.185 34.8132C156.229 34.8552 156.309 34.8762 156.427 34.8741H156.957C157.074 34.8762 157.154 34.8552 157.198 34.8132C157.24 34.7691 157.262 34.6892 157.259 34.5715V28.6712C157.262 28.5535 157.24 28.4737 157.198 28.4296C157.154 28.3875 157.074 28.3665 156.957 28.3686H156.427C156.363 28.3686 156.307 28.3812 156.259 28.4065C156.21 28.4317 156.168 28.4695 156.136 28.5199L153.386 32.2517C153.108 32.6173 152.881 32.9956 152.704 33.3864H152.666C152.736 33.1154 152.786 32.8443 152.82 32.5711C152.851 32.3001 152.868 32.0248 152.868 31.7474V28.6712C152.87 28.5535 152.85 28.4737 152.808 28.4296C152.763 28.3875 152.683 28.3665 152.565 28.3686H152.036ZM159.127 28.3686C159.009 28.3665 158.929 28.3875 158.885 28.4296C158.843 28.4737 158.822 28.5535 158.824 28.6712V34.5715C158.824 34.7732 158.925 34.8741 159.127 34.8741H159.657C159.783 34.8741 159.884 34.8237 159.96 34.7228L162.673 31.0288C162.818 30.8208 162.95 30.6211 163.068 30.43C163.188 30.2388 163.291 30.0517 163.379 29.8689H163.417C163.348 30.1967 163.297 30.4993 163.264 30.7787C163.232 31.0561 163.215 31.3125 163.215 31.5457V34.5715C163.213 34.6892 163.234 34.7691 163.276 34.8132C163.32 34.8552 163.4 34.8762 163.518 34.8741H164.048C164.166 34.8762 164.245 34.8552 164.29 34.8132C164.332 34.7691 164.353 34.6892 164.351 34.5715V28.6712C164.353 28.5535 164.332 28.4737 164.29 28.4296C164.245 28.3875 164.166 28.3665 164.048 28.3686H163.518C163.455 28.3686 163.398 28.3812 163.35 28.4065C163.301 28.4317 163.259 28.4695 163.228 28.5199L160.477 32.2517C160.2 32.6173 159.972 32.9956 159.796 33.3864H159.758C159.827 33.1154 159.878 32.8443 159.911 32.5711C159.943 32.3001 159.96 32.0248 159.96 31.7474V28.6712C159.962 28.5535 159.941 28.4737 159.899 28.4296C159.855 28.3875 159.775 28.3665 159.657 28.3686H159.127ZM168.591 32.6552C168.592 33.1574 168.706 33.5881 168.931 33.9454C169.156 34.3047 169.478 34.5799 169.898 34.7732C170.319 34.9645 170.826 35.0611 171.417 35.0632C172.02 35.0611 172.533 34.9645 172.954 34.7732C173.377 34.5799 173.698 34.3047 173.921 33.9454C174.142 33.5881 174.254 33.1574 174.256 32.6552V30.6002C174.254 30.0937 174.142 29.6609 173.921 29.2995C173.698 28.9401 173.377 28.6628 172.954 28.4716C172.533 28.2783 172.02 28.1816 171.417 28.1795C170.826 28.1816 170.319 28.2783 169.898 28.4716C169.478 28.6628 169.156 28.9401 168.931 29.2995C168.706 29.6609 168.592 30.0937 168.591 30.6002V32.6552ZM173.133 32.6552C173.133 32.9452 173.063 33.1952 172.927 33.4011C172.79 33.607 172.594 33.7667 172.338 33.876C172.084 33.9853 171.776 34.042 171.417 34.042C171.061 34.042 170.759 33.9853 170.504 33.876C170.25 33.7667 170.056 33.607 169.919 33.4011C169.783 33.1952 169.715 32.9452 169.713 32.6552V30.5876C169.715 30.2955 169.783 30.0475 169.919 29.8416C170.056 29.6335 170.25 29.476 170.504 29.3667C170.759 29.2574 171.061 29.2007 171.417 29.2007C171.776 29.2007 172.084 29.2574 172.338 29.3667C172.594 29.476 172.79 29.6335 172.927 29.8416C173.063 30.0475 173.133 30.2955 173.133 30.5876V32.6552ZM180.249 28.3686C180.142 28.3665 180.066 28.3875 180.018 28.4296C179.97 28.4737 179.946 28.5535 179.946 28.6712V31.0288H176.754V28.6712C176.756 28.5535 176.735 28.4737 176.693 28.4296C176.649 28.3875 176.569 28.3665 176.451 28.3686H175.921C175.804 28.3665 175.724 28.3875 175.679 28.4296C175.637 28.4737 175.616 28.5535 175.619 28.6712V34.5715C175.619 34.7732 175.72 34.8741 175.921 34.8741H176.451C176.569 34.8762 176.649 34.8552 176.693 34.8132C176.735 34.7691 176.756 34.6892 176.754 34.5715V32.0752H179.946V34.5715C179.946 34.6892 179.97 34.7691 180.018 34.8132C180.066 34.8552 180.142 34.8762 180.249 34.8741H180.779C180.886 34.8762 180.962 34.8552 181.011 34.8132C181.059 34.7691 181.082 34.6892 181.082 34.5715V28.6712C181.082 28.5535 181.059 28.4737 181.011 28.4296C180.962 28.3875 180.886 28.3665 180.779 28.3686H180.249ZM183.631 28.3686C183.513 28.3665 183.433 28.3875 183.389 28.4296C183.347 28.4737 183.326 28.5535 183.328 28.6712V30.638C183.328 31.2936 183.297 31.842 183.231 32.2833C183.164 32.7245 183.063 33.0586 182.924 33.2856C182.834 33.4347 182.752 33.5503 182.676 33.6344C182.6 33.7184 182.521 33.7899 182.436 33.8445C182.352 33.8991 182.249 33.9559 182.129 34.0168C182.06 34.0609 182.016 34.1114 181.997 34.1702C181.978 34.2269 181.984 34.2942 182.016 34.3698L182.281 34.8741C182.325 34.9561 182.375 35.0086 182.436 35.0338C182.495 35.059 182.565 35.0569 182.647 35.0254C182.817 34.9435 182.971 34.8573 183.107 34.7669C183.242 34.6745 183.37 34.5631 183.49 34.4307C183.612 34.2984 183.734 34.1324 183.858 33.9285C184.047 33.6259 184.188 33.2036 184.283 32.6657C184.377 32.1278 184.426 31.4764 184.426 30.7136V29.415H186.861V34.5715C186.859 34.6892 186.88 34.7691 186.922 34.8132C186.966 34.8552 187.046 34.8762 187.164 34.8741H187.681C187.789 34.8762 187.864 34.8552 187.913 34.8132C187.961 34.7691 187.984 34.6892 187.984 34.5715V28.6712C187.984 28.5535 187.961 28.4737 187.913 28.4296C187.864 28.3875 187.789 28.3665 187.681 28.3686H183.631ZM189.334 29.5033C189.284 29.6041 189.271 29.6903 189.299 29.7596C189.324 29.8311 189.391 29.8878 189.498 29.9319L189.889 30.1085C189.967 30.1379 190.028 30.1526 190.07 30.1526C190.112 30.1526 190.15 30.1379 190.184 30.1063C190.217 30.0727 190.257 30.0244 190.306 29.9572C190.464 29.6987 190.672 29.5054 190.932 29.3793C191.191 29.2512 191.504 29.1881 191.87 29.1881C192.238 29.1881 192.533 29.2469 192.753 29.3604C192.974 29.476 193.132 29.6441 193.229 29.8668C193.325 30.0917 193.374 30.3648 193.372 30.6884V31.1675C193.12 31.136 192.873 31.1129 192.634 31.1003C192.394 31.0855 192.16 31.0792 191.933 31.0792C191.258 31.0771 190.716 31.1402 190.302 31.2684C189.887 31.3966 189.587 31.6045 189.397 31.8945C189.21 32.1866 189.117 32.5732 189.12 33.0586C189.12 33.4053 189.17 33.7058 189.269 33.958C189.37 34.2101 189.517 34.4139 189.713 34.5715C189.908 34.7354 190.188 34.8573 190.552 34.9392C190.916 35.0212 191.359 35.0632 191.883 35.0632C192.356 35.0632 192.772 35.0359 193.134 34.9791C193.494 34.9245 193.801 34.8426 194.053 34.7354C194.171 34.6871 194.262 34.6346 194.329 34.5799C194.394 34.5253 194.44 34.4538 194.467 34.3656C194.495 34.2774 194.507 34.1618 194.507 34.0168V30.7262C194.509 30.1988 194.425 29.7449 194.253 29.3646C194.081 28.9864 193.803 28.6943 193.42 28.4884C193.035 28.2846 192.529 28.1816 191.896 28.1795C191.271 28.1795 190.745 28.2888 190.316 28.5094C189.889 28.73 189.561 29.062 189.334 29.5033ZM193.372 33.689C193.372 33.7583 193.357 33.8151 193.325 33.8613C193.294 33.9054 193.246 33.9411 193.182 33.9664C192.892 34.0672 192.425 34.1176 191.782 34.1176C191.393 34.1176 191.088 34.0798 190.865 34.0021C190.642 33.9264 190.482 33.8087 190.39 33.6533C190.297 33.4957 190.253 33.2982 190.255 33.0586C190.253 32.8107 190.302 32.6089 190.4 32.4535C190.499 32.298 190.661 32.1824 190.888 32.1088C191.117 32.0353 191.422 31.9996 191.807 31.9996C191.99 31.9996 192.213 32.008 192.476 32.0269C192.739 32.0437 193.038 32.0689 193.372 32.1005V33.689ZM200.728 26.1371C200.747 26.074 200.747 26.0194 200.726 25.9753C200.703 25.929 200.659 25.8912 200.589 25.8597L200.148 25.6958C200.021 25.658 199.933 25.6958 199.883 25.8093C199.719 26.364 199.353 26.6414 198.785 26.6414C198.501 26.6414 198.27 26.5721 198.091 26.4334C197.912 26.2947 197.782 26.0866 197.7 25.8093C197.675 25.7525 197.637 25.7168 197.586 25.7021C197.536 25.6874 197.473 25.6895 197.397 25.7085L197.006 25.8597C196.937 25.8786 196.892 25.9122 196.869 25.9606C196.848 26.0089 196.848 26.0677 196.867 26.1371C197.012 26.5847 197.243 26.9187 197.561 27.1415C197.879 27.3621 198.287 27.4735 198.785 27.4735C199.29 27.4735 199.704 27.3621 200.026 27.1415C200.349 26.9187 200.583 26.5847 200.728 26.1371ZM196.274 28.3686C196.156 28.3665 196.076 28.3875 196.032 28.4296C195.99 28.4737 195.969 28.5535 195.971 28.6712V34.5715C195.971 34.7732 196.072 34.8741 196.274 34.8741H196.804C196.93 34.8741 197.031 34.8237 197.107 34.7228L199.82 31.0288C199.965 30.8208 200.097 30.6211 200.215 30.43C200.335 30.2388 200.438 30.0517 200.526 29.8689H200.564C200.495 30.1967 200.444 30.4993 200.411 30.7787C200.379 31.0561 200.362 31.3125 200.362 31.5457V34.5715C200.36 34.6892 200.381 34.7691 200.423 34.8132C200.467 34.8552 200.547 34.8762 200.665 34.8741H201.195C201.313 34.8762 201.393 34.8552 201.437 34.8132C201.479 34.7691 201.5 34.6892 201.498 34.5715V28.6712C201.5 28.5535 201.479 28.4737 201.437 28.4296C201.393 28.3875 201.313 28.3665 201.195 28.3686H200.665C200.602 28.3686 200.545 28.3812 200.497 28.4065C200.448 28.4317 200.406 28.4695 200.375 28.5199L197.624 32.2517C197.346 32.6173 197.119 32.9956 196.943 33.3864H196.905C196.974 33.1154 197.025 32.8443 197.058 32.5711C197.09 32.3001 197.107 32.0248 197.107 31.7474V28.6712C197.109 28.5535 197.088 28.4737 197.046 28.4296C197.002 28.3875 196.922 28.3665 196.804 28.3686H196.274ZM207.693 28.3686C207.586 28.3665 207.51 28.3875 207.462 28.4296C207.413 28.4737 207.39 28.5535 207.39 28.6712V31.0288H204.198V28.6712C204.2 28.5535 204.179 28.4737 204.137 28.4296C204.093 28.3875 204.013 28.3665 203.895 28.3686H203.365C203.248 28.3665 203.167 28.3875 203.123 28.4296C203.081 28.4737 203.06 28.5535 203.062 28.6712V34.5715C203.062 34.7732 203.163 34.8741 203.365 34.8741H203.895C204.013 34.8762 204.093 34.8552 204.137 34.8132C204.179 34.7691 204.2 34.6892 204.198 34.5715V32.0752H207.39V34.5715C207.39 34.6892 207.413 34.7691 207.462 34.8132C207.51 34.8552 207.586 34.8762 207.693 34.8741H208.223C208.331 34.8762 208.406 34.8552 208.455 34.8132C208.503 34.7691 208.526 34.6892 208.526 34.5715V28.6712C208.526 28.5535 208.503 28.4737 208.455 28.4296C208.406 28.3875 208.331 28.3665 208.223 28.3686H207.693Z" fill="#140A32"/>
<path fill-rule="evenodd" clip-rule="evenodd" d="M12.6632 2.59718C11.9502 1.04735 10.952 0.272505 9.66855 0.189493C7.84313 0.18942 6.01785 0.189456 4.3636 0.189529C3.19435 1.57323 1.73979 3.39971 0 5.66898C2.3219 5.65166 4.83925 5.49374 7.41089 5.77337C9.4743 5.99775 11.1784 6.70152 12.4065 8.07664C12.5776 5.8904 12.6061 4.0915 12.6632 2.59718Z" fill="#115B82"/>
<path fill-rule="evenodd" clip-rule="evenodd" d="M12.6632 2.59718C11.9502 1.04735 10.952 0.272505 9.66855 0.189493C7.84313 0.18942 6.01785 0.189456 4.3636 0.189529C3.19435 1.57323 1.73979 3.39971 0 5.66898C2.3219 5.65166 4.83925 5.49374 7.41089 5.77337C9.4743 5.99775 11.1784 6.70152 12.4065 8.07664C12.5776 5.8904 12.6061 4.0915 12.6632 2.59718Z" fill="#115B82"/>
<path fill-rule="evenodd" clip-rule="evenodd" d="M5.29639 6.72778V24.0692H12.384V9.68495C10.5256 7.45274 8.10569 6.84427 5.29639 6.72778Z" fill="#115B82"/>
<path fill-rule="evenodd" clip-rule="evenodd" d="M5.29639 6.72778V24.0692H12.384V9.68495C10.5256 7.45274 8.10569 6.84427 5.29639 6.72778Z" fill="#115B82"/>
<path fill-rule="evenodd" clip-rule="evenodd" d="M29.0643 23.8346C25.8726 24.1027 22.2811 24.4926 19.3005 23.0338C17.6167 22.2098 16.2791 21.0443 15.3035 19.5376C13.2476 16.3623 12.903 9.12665 15.0695 5.18864C15.6341 4.16235 16.4317 3.37826 17.3717 2.69399C19.7125 0.989133 22.861 0.091014 26.8172 0C22.6164 3.33025 20.8301 5.78521 20.5184 9.51188C20.3461 11.5724 20.21 15.4918 21.949 16.8951C22.394 17.254 22.909 17.5588 23.492 17.7637C26.4189 18.7924 31.1151 18.2388 33.8179 17.9624C32.0607 20.8984 30.2456 22.9135 29.0643 23.8346Z" fill="#115B82"/>
<path fill-rule="evenodd" clip-rule="evenodd" d="M29.0643 23.8346C25.8726 24.1027 22.2811 24.4926 19.3005 23.0338C17.6167 22.2098 16.2791 21.0443 15.3035 19.5376C13.2476 16.3623 12.903 9.12665 15.0695 5.18864C15.6341 4.16235 16.4317 3.37826 17.3717 2.69399C19.7125 0.989133 22.861 0.091014 26.8172 0C22.6164 3.33025 20.8301 5.78521 20.5184 9.51188C20.3461 11.5724 20.21 15.4918 21.949 16.8951C22.394 17.254 22.909 17.5588 23.492 17.7637C26.4189 18.7924 31.1151 18.2388 33.8179 17.9624C32.0607 20.8984 30.2456 22.9135 29.0643 23.8346Z" fill="#115B82"/>
<path fill-rule="evenodd" clip-rule="evenodd" d="M51.3827 0.385235C54.5744 0.117163 58.1658 -0.272797 61.1465 1.18602C62.8304 2.01011 64.1677 3.17553 65.1434 4.68226C67.1993 7.85763 67.5441 15.0932 65.3774 19.0312C64.8128 20.0575 64.0153 20.8416 63.0754 21.5259C60.7347 23.2308 57.5858 24.1289 53.6298 24.2199C57.8308 20.8896 59.6168 18.4347 59.9287 14.708C60.101 12.6475 60.237 8.72809 58.4978 7.32475C58.0531 6.96584 57.5379 6.66107 56.955 6.45616C54.028 5.4275 49.3319 5.98113 46.6292 6.25747C48.3863 3.3215 50.2015 1.30634 51.3827 0.385235Z" fill="#115B82"/>
<path fill-rule="evenodd" clip-rule="evenodd" d="M51.3827 0.385235C54.5744 0.117163 58.1658 -0.272797 61.1465 1.18602C62.8304 2.01011 64.1677 3.17553 65.1434 4.68226C67.1993 7.85763 67.5441 15.0932 65.3774 19.0312C64.8128 20.0575 64.0153 20.8416 63.0754 21.5259C60.7347 23.2308 57.5858 24.1289 53.6298 24.2199C57.8308 20.8896 59.6168 18.4347 59.9287 14.708C60.101 12.6475 60.237 8.72809 58.4978 7.32475C58.0531 6.96584 57.5379 6.66107 56.955 6.45616C54.028 5.4275 49.3319 5.98113 46.6292 6.25747C48.3863 3.3215 50.2015 1.30634 51.3827 0.385235Z" fill="#115B82"/>
<path fill-rule="evenodd" clip-rule="evenodd" d="M30.5334 24.0076C33.89 21.2077 35.9936 18.1084 36.4915 13.9976C36.6386 12.7843 36.6188 11.5569 36.7355 10.3398C36.9633 7.96308 37.5469 5.56868 39.3391 3.75787C41.5226 1.55156 44.7816 0.442589 49.6342 0.0864258C45.6311 3.67241 44.164 6.60031 43.5807 11.1484C43.4392 12.2536 43.4125 13.3741 43.2311 14.473C42.2101 20.6527 37.1289 24.2758 30.5334 24.0076Z" fill="#115B82"/>
<path fill-rule="evenodd" clip-rule="evenodd" d="M30.5334 24.0076C33.89 21.2077 35.9936 18.1084 36.4915 13.9976C36.6386 12.7843 36.6188 11.5569 36.7355 10.3398C36.9633 7.96308 37.5469 5.56868 39.3391 3.75787C41.5226 1.55156 44.7816 0.442589 49.6342 0.0864258C45.6311 3.67241 44.164 6.60031 43.5807 11.1484C43.4392 12.2536 43.4125 13.3741 43.2311 14.473C42.2101 20.6527 37.1289 24.2758 30.5334 24.0076Z" fill="#115B82"/>
<path fill-rule="evenodd" clip-rule="evenodd" d="M35.4827 7.88397C34.4215 7.02937 33.4887 6.61312 32.4772 6.3583C29.5867 5.63013 26.1923 6.05346 23.0767 6.14982C24.8122 3.08834 26.612 1.16152 28.4119 0.176702C29.9134 0.124491 31.3274 0.127962 32.6685 0.201621C34.2234 0.287008 35.4857 0.463555 36.9277 1.05867C37.8678 1.4468 38.4577 1.81649 38.6968 2.16776C36.9182 3.85907 35.847 5.78589 35.4827 7.88397Z" fill="#115B82"/>
<path fill-rule="evenodd" clip-rule="evenodd" d="M35.4827 7.88397C34.4215 7.02937 33.4887 6.61312 32.4772 6.3583C29.5867 5.63013 26.1923 6.05346 23.0767 6.14982C24.8122 3.08834 26.612 1.16152 28.4119 0.176702C29.9134 0.124491 31.3274 0.127962 32.6685 0.201621C34.2234 0.287008 35.4857 0.463555 36.9277 1.05867C37.8678 1.4468 38.4577 1.81649 38.6968 2.16776C36.9182 3.85907 35.847 5.78589 35.4827 7.88397Z" fill="#115B82"/>
<path fill-rule="evenodd" clip-rule="evenodd" d="M44.1703 16.3359C45.26 17.1905 46.2178 17.6068 47.2563 17.8616C50.2242 18.5898 53.7095 18.1664 56.9086 18.0701C55.1266 21.1316 53.2784 23.0584 51.4306 24.0432C49.8889 24.0954 48.4367 24.0919 47.0599 24.0183C45.4634 23.9329 44.1674 23.7564 42.6867 23.1612C41.7213 22.7731 41.1157 22.4034 40.8704 22.0522C42.6962 20.3609 43.7962 18.434 44.1703 16.3359Z" fill="#115B82"/>
<path fill-rule="evenodd" clip-rule="evenodd" d="M44.1703 16.3359C45.26 17.1905 46.2178 17.6068 47.2563 17.8616C50.2242 18.5898 53.7095 18.1664 56.9086 18.0701C55.1266 21.1316 53.2784 23.0584 51.4306 24.0432C49.8889 24.0954 48.4367 24.0919 47.0599 24.0183C45.4634 23.9329 44.1674 23.7564 42.6867 23.1612C41.7213 22.7731 41.1157 22.4034 40.8704 22.0522C42.6962 20.3609 43.7962 18.434 44.1703 16.3359Z" fill="#115B82"/>
</g>
<defs>
<clipPath id="clip0_3_1091">
<rect width="211" height="38" fill="white"/>
</clipPath>
</defs>
</svg>
